<mxfile host="app.diagrams.net" modified="2023-06-18T10:33:38.731Z" agent="Mozilla/5.0 (Macintosh; Intel Mac OS X 10_15_7) AppleWebKit/537.36 (KHTML, like Gecko) Chrome/114.0.0.0 Safari/537.36" etag="fxPzcsvLsYNBxUANp7YV" version="21.3.8" type="github" pages="7">
  <diagram name="Page-1" id="LQpM0y-y3X-_QGi2JBVG">
    <mxGraphModel dx="1116" dy="1479" grid="1" gridSize="10" guides="1" tooltips="1" connect="1" arrows="1" fold="1" page="1" pageScale="1" pageWidth="827" pageHeight="1169" math="0" shadow="0">
      <root>
        <mxCell id="0" />
        <mxCell id="1" parent="0" />
        <mxCell id="Vz45u7Fonc5N-65RXlbb-36" value="" style="rounded=1;whiteSpace=wrap;html=1;strokeColor=#36393d;strokeWidth=3;fontFamily=Helvetica;fontSize=12;fillColor=#eeeeee;" vertex="1" parent="1">
          <mxGeometry x="39.38" y="530" width="120" height="110" as="geometry" />
        </mxCell>
        <mxCell id="Vz45u7Fonc5N-65RXlbb-31" value="" style="rounded=1;whiteSpace=wrap;html=1;strokeColor=#36393d;strokeWidth=3;fontFamily=Helvetica;fontSize=12;fillColor=#eeeeee;" vertex="1" parent="1">
          <mxGeometry x="-143.33" y="86" width="120" height="303" as="geometry" />
        </mxCell>
        <mxCell id="f1BiPF42v0RQ563zsVqb-2" value="사용자 &lt;br&gt;Hardware Module" style="rounded=0;whiteSpace=wrap;html=1;fillColor=#dae8fc;strokeColor=#6c8ebf;" parent="1" vertex="1">
          <mxGeometry x="39.38" y="30" width="120" height="40" as="geometry" />
        </mxCell>
        <mxCell id="f1BiPF42v0RQ563zsVqb-6" value="&lt;font style=&quot;font-size: 15px;&quot;&gt;FaT Simulator System&lt;/font&gt;" style="rounded=0;whiteSpace=wrap;html=1;fillColor=#b0e3e6;strokeColor=#0e8088;strokeWidth=3;" parent="1" vertex="1">
          <mxGeometry x="34.5" y="-10" width="795.5" height="30" as="geometry" />
        </mxCell>
        <mxCell id="f1BiPF42v0RQ563zsVqb-7" value="콘텐츠 저장소" style="rounded=1;whiteSpace=wrap;html=1;fillColor=#0050ef;strokeColor=#001DBC;fontColor=#ffffff;" parent="1" vertex="1">
          <mxGeometry x="470" y="1290" width="249" height="29" as="geometry" />
        </mxCell>
        <mxCell id="f1BiPF42v0RQ563zsVqb-13" value="최상위버전&lt;br&gt;" style="image;aspect=fixed;perimeter=ellipsePerimeter;html=1;align=center;shadow=0;dashed=0;spacingTop=3;image=img/lib/active_directory/databases.svg;" parent="1" vertex="1">
          <mxGeometry x="569.5" y="1330" width="50" height="49" as="geometry" />
        </mxCell>
        <mxCell id="f1BiPF42v0RQ563zsVqb-14" value="Mobile Device Terminal" style="rounded=1;whiteSpace=wrap;html=1;fillColor=#0050ef;strokeColor=#001DBC;fontColor=#ffffff;" parent="1" vertex="1">
          <mxGeometry x="570" y="57" width="250" height="30" as="geometry" />
        </mxCell>
        <mxCell id="toP1aLSbvlmDQtSUp-Qs-1" value="Graphic API" style="rounded=1;whiteSpace=wrap;html=1;" parent="1" vertex="1">
          <mxGeometry x="571" y="127" width="249" height="20" as="geometry" />
        </mxCell>
        <mxCell id="toP1aLSbvlmDQtSUp-Qs-2" value="OS Config File" style="rounded=1;whiteSpace=wrap;html=1;" parent="1" vertex="1">
          <mxGeometry x="571" y="97" width="249" height="20" as="geometry" />
        </mxCell>
        <mxCell id="E7xnLWKExB6z1no43Dy7-3" value="Sound API" style="rounded=1;whiteSpace=wrap;html=1;" parent="1" vertex="1">
          <mxGeometry x="571" y="157" width="249" height="20" as="geometry" />
        </mxCell>
        <mxCell id="E7xnLWKExB6z1no43Dy7-4" value="내부정보" style="image;aspect=fixed;perimeter=ellipsePerimeter;html=1;align=center;shadow=0;dashed=0;spacingTop=3;image=img/lib/active_directory/databases.svg;" parent="1" vertex="1">
          <mxGeometry x="479" y="1330" width="50" height="49" as="geometry" />
        </mxCell>
        <mxCell id="E7xnLWKExB6z1no43Dy7-6" value="최상위버전_전단계" style="image;aspect=fixed;perimeter=ellipsePerimeter;html=1;align=center;shadow=0;dashed=0;spacingTop=3;image=img/lib/active_directory/databases.svg;" parent="1" vertex="1">
          <mxGeometry x="659" y="1330" width="50" height="49" as="geometry" />
        </mxCell>
        <mxCell id="E7xnLWKExB6z1no43Dy7-8" value="(in Device)FaT 시뮬레이터 애플리케이션" style="rounded=1;whiteSpace=wrap;html=1;fillColor=#0050ef;strokeColor=#001DBC;fontColor=#ffffff;" parent="1" vertex="1">
          <mxGeometry x="310" y="230" width="251" height="29" as="geometry" />
        </mxCell>
        <mxCell id="E7xnLWKExB6z1no43Dy7-9" value="Graphic API Config" style="rounded=1;whiteSpace=wrap;html=1;" parent="1" vertex="1">
          <mxGeometry x="309" y="271" width="251" height="20" as="geometry" />
        </mxCell>
        <mxCell id="E7xnLWKExB6z1no43Dy7-10" value="Play Cash" style="rounded=1;whiteSpace=wrap;html=1;fillColor=#0050ef;strokeColor=#001DBC;fontColor=#ffffff;" parent="1" vertex="1">
          <mxGeometry x="310" y="57" width="251" height="29" as="geometry" />
        </mxCell>
        <mxCell id="WnqY7mnbP_ce95q3HVKC-2" value="피드백&lt;br&gt;정보" style="shape=datastore;whiteSpace=wrap;html=1;fontFamily=Helvetica;fontSize=11;fontColor=default;strokeWidth=3;" parent="1" vertex="1">
          <mxGeometry x="179" y="1180" width="60" height="60" as="geometry" />
        </mxCell>
        <mxCell id="WnqY7mnbP_ce95q3HVKC-3" value="운영자" style="outlineConnect=0;dashed=0;verticalLabelPosition=bottom;verticalAlign=top;align=center;html=1;shape=mxgraph.aws3.management_console;fillColor=#D2D3D3;gradientColor=none;fontFamily=Helvetica;fontSize=11;fontColor=default;" parent="1" vertex="1">
          <mxGeometry x="68.5" y="553" width="63" height="63" as="geometry" />
        </mxCell>
        <mxCell id="WnqY7mnbP_ce95q3HVKC-4" value="앱스토어" style="rounded=1;whiteSpace=wrap;html=1;fillColor=#dae8fc;strokeColor=#6c8ebf;" parent="1" vertex="1">
          <mxGeometry x="-3" y="1130" width="249" height="29" as="geometry" />
        </mxCell>
        <mxCell id="WnqY7mnbP_ce95q3HVKC-5" value="배포된&lt;br&gt;실행파일" style="shape=datastore;whiteSpace=wrap;html=1;fontFamily=Helvetica;fontSize=11;fontColor=default;strokeWidth=3;" parent="1" vertex="1">
          <mxGeometry x="34.5" y="1180" width="60" height="60" as="geometry" />
        </mxCell>
        <mxCell id="WnqY7mnbP_ce95q3HVKC-6" value="배포용 클라우드" style="rounded=1;whiteSpace=wrap;html=1;fillColor=#dae8fc;strokeColor=#6c8ebf;" parent="1" vertex="1">
          <mxGeometry x="-10" y="1274" width="249" height="29" as="geometry" />
        </mxCell>
        <mxCell id="WnqY7mnbP_ce95q3HVKC-7" value="피드백&lt;br&gt;정보" style="shape=datastore;whiteSpace=wrap;html=1;fontFamily=Helvetica;fontSize=11;fontColor=default;strokeWidth=3;" parent="1" vertex="1">
          <mxGeometry x="-3" y="1330" width="60" height="60" as="geometry" />
        </mxCell>
        <mxCell id="WnqY7mnbP_ce95q3HVKC-8" value="버전관리된&lt;br&gt;실행파일" style="shape=datastore;whiteSpace=wrap;html=1;fontFamily=Helvetica;fontSize=11;fontColor=default;strokeWidth=3;" parent="1" vertex="1">
          <mxGeometry x="94.5" y="1330" width="60" height="60" as="geometry" />
        </mxCell>
        <mxCell id="WnqY7mnbP_ce95q3HVKC-9" value="배포할 &lt;br&gt;실행파일" style="shape=datastore;whiteSpace=wrap;html=1;fontFamily=Helvetica;fontSize=11;fontColor=default;strokeWidth=3;" parent="1" vertex="1">
          <mxGeometry x="179" y="1330" width="60" height="60" as="geometry" />
        </mxCell>
        <mxCell id="vQna6XxML9XRyEu_gCtE-1" value="선택한 연령층, 스테이지, 난이도 정보" style="rounded=1;whiteSpace=wrap;html=1;" parent="1" vertex="1">
          <mxGeometry x="311" y="97" width="250" height="20" as="geometry" />
        </mxCell>
        <mxCell id="vQna6XxML9XRyEu_gCtE-2" value="플레이 로그(필터링 적용)" style="rounded=1;whiteSpace=wrap;html=1;" parent="1" vertex="1">
          <mxGeometry x="311" y="127" width="250" height="20" as="geometry" />
        </mxCell>
        <mxCell id="vQna6XxML9XRyEu_gCtE-3" value="플레이 캐시" style="rounded=1;whiteSpace=wrap;html=1;" parent="1" vertex="1">
          <mxGeometry x="311" y="160" width="250" height="20" as="geometry" />
        </mxCell>
        <mxCell id="Vz45u7Fonc5N-65RXlbb-17" value="Mobile Device Storage" style="rounded=1;whiteSpace=wrap;html=1;" vertex="1" parent="1">
          <mxGeometry x="570" y="187" width="249" height="20" as="geometry" />
        </mxCell>
        <mxCell id="f1BiPF42v0RQ563zsVqb-4" value="Android OS 스마트폰" style="sketch=0;outlineConnect=0;fontColor=#232F3E;gradientColor=none;strokeColor=#232F3E;fillColor=none;dashed=0;verticalLabelPosition=bottom;verticalAlign=top;align=center;html=1;fontSize=12;fontStyle=0;aspect=fixed;shape=mxgraph.aws4.resourceIcon;resIcon=mxgraph.aws4.mobile_client;" parent="1" vertex="1">
          <mxGeometry x="65" y="201" width="70" height="70" as="geometry" />
        </mxCell>
        <mxCell id="f1BiPF42v0RQ563zsVqb-3" value="iOS 스마트폰" style="outlineConnect=0;dashed=0;verticalLabelPosition=bottom;verticalAlign=top;align=center;html=1;shape=mxgraph.aws3.mobile_client;fillColor=#D2D3D3;gradientColor=none;" parent="1" vertex="1">
          <mxGeometry x="80" y="105.5" width="40" height="63" as="geometry" />
        </mxCell>
        <mxCell id="Vz45u7Fonc5N-65RXlbb-1" value="Android OS 태블릿" style="image;aspect=fixed;perimeter=ellipsePerimeter;html=1;align=center;shadow=0;dashed=0;spacingTop=3;image=img/lib/active_directory/tablet_pc.svg;" vertex="1" parent="1">
          <mxGeometry x="78.75" y="293.5" width="41.25" height="56.5" as="geometry" />
        </mxCell>
        <mxCell id="Vz45u7Fonc5N-65RXlbb-20" value="Sound API Config" style="rounded=1;whiteSpace=wrap;html=1;" vertex="1" parent="1">
          <mxGeometry x="310" y="300" width="250" height="20" as="geometry" />
        </mxCell>
        <mxCell id="Vz45u7Fonc5N-65RXlbb-21" value="Touch API Config" style="rounded=1;whiteSpace=wrap;html=1;" vertex="1" parent="1">
          <mxGeometry x="309.5" y="330" width="250" height="20" as="geometry" />
        </mxCell>
        <mxCell id="Vz45u7Fonc5N-65RXlbb-22" value="FaT Simulator" style="rounded=1;whiteSpace=wrap;html=1;" vertex="1" parent="1">
          <mxGeometry x="309" y="359" width="250" height="20" as="geometry" />
        </mxCell>
        <mxCell id="Vz45u7Fonc5N-65RXlbb-23" value="" style="rounded=0;whiteSpace=wrap;html=1;strokeColor=default;strokeWidth=3;fontFamily=Helvetica;fontSize=12;fontColor=default;fillColor=none;" vertex="1" parent="1">
          <mxGeometry x="300" y="50" width="530" height="340" as="geometry" />
        </mxCell>
        <mxCell id="Vz45u7Fonc5N-65RXlbb-29" value="가상 모듈" style="outlineConnect=0;dashed=0;verticalLabelPosition=bottom;verticalAlign=top;align=center;html=1;shape=mxgraph.aws3.mobile_client;fillColor=#D2D3D3;gradientColor=none;" vertex="1" parent="1">
          <mxGeometry x="640" y="530" width="40" height="63" as="geometry" />
        </mxCell>
        <mxCell id="Vz45u7Fonc5N-65RXlbb-30" value="" style="shape=flexArrow;endArrow=classic;startArrow=classic;html=1;rounded=0;fontFamily=Helvetica;fontSize=12;fontColor=default;strokeWidth=3;" edge="1" parent="1">
          <mxGeometry width="100" height="100" relative="1" as="geometry">
            <mxPoint x="-15" y="147" as="sourcePoint" />
            <mxPoint x="65" y="147" as="targetPoint" />
          </mxGeometry>
        </mxCell>
        <mxCell id="Vz45u7Fonc5N-65RXlbb-33" value="" style="shape=flexArrow;endArrow=classic;startArrow=classic;html=1;rounded=0;fontFamily=Helvetica;fontSize=12;fontColor=default;strokeWidth=3;" edge="1" parent="1">
          <mxGeometry width="100" height="100" relative="1" as="geometry">
            <mxPoint x="-15" y="237.22" as="sourcePoint" />
            <mxPoint x="65" y="237.22" as="targetPoint" />
          </mxGeometry>
        </mxCell>
        <mxCell id="Vz45u7Fonc5N-65RXlbb-34" value="" style="shape=flexArrow;endArrow=classic;startArrow=classic;html=1;rounded=0;fontFamily=Helvetica;fontSize=12;fontColor=default;strokeWidth=3;exitX=1.004;exitY=0.117;exitDx=0;exitDy=0;exitPerimeter=0;" edge="1" parent="1">
          <mxGeometry width="100" height="100" relative="1" as="geometry">
            <mxPoint x="-12" y="330" as="sourcePoint" />
            <mxPoint x="66" y="330" as="targetPoint" />
          </mxGeometry>
        </mxCell>
        <mxCell id="Vz45u7Fonc5N-65RXlbb-35" value="" style="shape=flexArrow;endArrow=classic;startArrow=classic;html=1;rounded=0;fontFamily=Helvetica;fontSize=12;fontColor=default;strokeWidth=3;exitX=1.004;exitY=0.117;exitDx=0;exitDy=0;exitPerimeter=0;" edge="1" parent="1">
          <mxGeometry width="100" height="100" relative="1" as="geometry">
            <mxPoint x="160" y="447" as="sourcePoint" />
            <mxPoint x="230" y="447" as="targetPoint" />
          </mxGeometry>
        </mxCell>
        <mxCell id="Vz45u7Fonc5N-65RXlbb-37" value="접속 도구" style="rounded=0;whiteSpace=wrap;html=1;fillColor=#dae8fc;strokeColor=#6c8ebf;" vertex="1" parent="1">
          <mxGeometry x="200" y="530" width="80" height="80" as="geometry" />
        </mxCell>
        <mxCell id="Vz45u7Fonc5N-65RXlbb-42" value="" style="shape=actor;whiteSpace=wrap;html=1;rounded=0;strokeColor=default;strokeWidth=3;fontFamily=Helvetica;fontSize=12;fontColor=default;fillColor=none;" vertex="1" parent="1">
          <mxGeometry x="-120" y="165" width="73.33" height="110" as="geometry" />
        </mxCell>
        <mxCell id="Vz45u7Fonc5N-65RXlbb-43" value="user" style="text;html=1;strokeColor=none;fillColor=none;align=center;verticalAlign=middle;whiteSpace=wrap;rounded=0;fontSize=12;fontFamily=Helvetica;fontColor=default;" vertex="1" parent="1">
          <mxGeometry x="-113.34" y="275" width="60" height="30" as="geometry" />
        </mxCell>
        <mxCell id="Vz45u7Fonc5N-65RXlbb-44" value="사용자" style="rounded=0;whiteSpace=wrap;html=1;fillColor=#dae8fc;strokeColor=#6c8ebf;" vertex="1" parent="1">
          <mxGeometry x="-143.34" y="30" width="120" height="40" as="geometry" />
        </mxCell>
      </root>
    </mxGraphModel>
  </diagram>
  <diagram id="Es0hnNtWDDERyYta1_jB" name="FaT Structure">
    <mxGraphModel dx="1853" dy="604" grid="1" gridSize="10" guides="1" tooltips="1" connect="1" arrows="1" fold="1" page="1" pageScale="1" pageWidth="827" pageHeight="1169" math="0" shadow="0">
      <root>
        <mxCell id="0" />
        <mxCell id="1" parent="0" />
        <mxCell id="jNYN7gTXVCN3KIV63mF9-1" value="&lt;font style=&quot;font-size: 19px;&quot;&gt;시작 화면&lt;/font&gt;" style="rounded=0;whiteSpace=wrap;html=1;fillColor=none;strokeWidth=4;" parent="1" vertex="1">
          <mxGeometry x="467" y="80" width="120" height="60" as="geometry" />
        </mxCell>
        <mxCell id="jNYN7gTXVCN3KIV63mF9-23" style="edgeStyle=none;shape=connector;rounded=0;orthogonalLoop=1;jettySize=auto;html=1;exitX=1;exitY=0.5;exitDx=0;exitDy=0;entryX=0;entryY=0.3;entryDx=0;entryDy=0;labelBackgroundColor=default;strokeColor=default;strokeWidth=3;fontFamily=Helvetica;fontSize=11;fontColor=default;startArrow=classic;startFill=1;endArrow=classic;" parent="1" source="jNYN7gTXVCN3KIV63mF9-2" target="jNYN7gTXVCN3KIV63mF9-19" edge="1">
          <mxGeometry relative="1" as="geometry" />
        </mxCell>
        <mxCell id="jNYN7gTXVCN3KIV63mF9-2" value="&lt;span style=&quot;font-size: 19px;&quot;&gt;연령층 선택&lt;/span&gt;" style="rounded=0;whiteSpace=wrap;html=1;fillColor=none;strokeWidth=4;" parent="1" vertex="1">
          <mxGeometry x="467" y="230" width="120" height="60" as="geometry" />
        </mxCell>
        <mxCell id="jNYN7gTXVCN3KIV63mF9-22" style="edgeStyle=none;shape=connector;rounded=0;orthogonalLoop=1;jettySize=auto;html=1;exitX=1;exitY=0.5;exitDx=0;exitDy=0;entryX=0;entryY=0.3;entryDx=0;entryDy=0;labelBackgroundColor=default;strokeColor=default;strokeWidth=3;fontFamily=Helvetica;fontSize=11;fontColor=default;startArrow=classic;startFill=1;endArrow=classic;" parent="1" source="jNYN7gTXVCN3KIV63mF9-3" target="jNYN7gTXVCN3KIV63mF9-19" edge="1">
          <mxGeometry relative="1" as="geometry" />
        </mxCell>
        <mxCell id="jNYN7gTXVCN3KIV63mF9-3" value="&lt;span style=&quot;font-size: 19px;&quot;&gt;스테이지 선택&lt;/span&gt;" style="rounded=0;whiteSpace=wrap;html=1;fillColor=none;strokeWidth=4;" parent="1" vertex="1">
          <mxGeometry x="467" y="350" width="120" height="60" as="geometry" />
        </mxCell>
        <mxCell id="jNYN7gTXVCN3KIV63mF9-21" style="edgeStyle=none;shape=connector;rounded=0;orthogonalLoop=1;jettySize=auto;html=1;exitX=1;exitY=0.5;exitDx=0;exitDy=0;entryX=0;entryY=0.3;entryDx=0;entryDy=0;labelBackgroundColor=default;strokeColor=default;strokeWidth=3;fontFamily=Helvetica;fontSize=11;fontColor=default;endArrow=classic;startArrow=classic;startFill=1;" parent="1" source="jNYN7gTXVCN3KIV63mF9-4" target="jNYN7gTXVCN3KIV63mF9-19" edge="1">
          <mxGeometry relative="1" as="geometry" />
        </mxCell>
        <mxCell id="jNYN7gTXVCN3KIV63mF9-4" value="&lt;span style=&quot;font-size: 19px;&quot;&gt;난이도 선택&lt;/span&gt;" style="rounded=0;whiteSpace=wrap;html=1;fillColor=none;strokeWidth=4;" parent="1" vertex="1">
          <mxGeometry x="467" y="470" width="120" height="60" as="geometry" />
        </mxCell>
        <mxCell id="jNYN7gTXVCN3KIV63mF9-28" style="edgeStyle=none;shape=connector;rounded=0;orthogonalLoop=1;jettySize=auto;html=1;exitX=1;exitY=0.5;exitDx=0;exitDy=0;labelBackgroundColor=default;strokeColor=default;strokeWidth=3;fontFamily=Helvetica;fontSize=11;fontColor=default;startArrow=none;startFill=0;endArrow=classic;" parent="1" source="jNYN7gTXVCN3KIV63mF9-5" target="jNYN7gTXVCN3KIV63mF9-27" edge="1">
          <mxGeometry relative="1" as="geometry" />
        </mxCell>
        <mxCell id="jNYN7gTXVCN3KIV63mF9-5" value="&lt;span style=&quot;font-size: 19px;&quot;&gt;게임 플레이&lt;/span&gt;" style="rounded=0;whiteSpace=wrap;html=1;fillColor=none;strokeWidth=4;" parent="1" vertex="1">
          <mxGeometry x="467" y="595" width="120" height="60" as="geometry" />
        </mxCell>
        <mxCell id="jNYN7gTXVCN3KIV63mF9-6" value="&lt;span style=&quot;font-size: 19px;&quot;&gt;게임 결과창&lt;/span&gt;" style="rounded=0;whiteSpace=wrap;html=1;fillColor=none;strokeWidth=4;" parent="1" vertex="1">
          <mxGeometry x="467" y="720" width="120" height="60" as="geometry" />
        </mxCell>
        <mxCell id="jNYN7gTXVCN3KIV63mF9-18" style="edgeStyle=none;shape=connector;rounded=0;orthogonalLoop=1;jettySize=auto;html=1;exitX=0;exitY=0.5;exitDx=0;exitDy=0;labelBackgroundColor=default;strokeColor=default;strokeWidth=3;fontFamily=Helvetica;fontSize=11;fontColor=default;endArrow=classic;entryX=0;entryY=0.5;entryDx=0;entryDy=0;" parent="1" source="jNYN7gTXVCN3KIV63mF9-8" target="jNYN7gTXVCN3KIV63mF9-31" edge="1">
          <mxGeometry relative="1" as="geometry">
            <mxPoint x="587" y="620" as="targetPoint" />
          </mxGeometry>
        </mxCell>
        <mxCell id="jNYN7gTXVCN3KIV63mF9-8" value="그래픽" style="shape=datastore;whiteSpace=wrap;html=1;strokeWidth=3;" parent="1" vertex="1">
          <mxGeometry x="-33" y="640" width="80" height="80" as="geometry" />
        </mxCell>
        <mxCell id="jNYN7gTXVCN3KIV63mF9-9" value="그래픽은 연령층, 스테이지, 난이도와 무관히 같음." style="text;html=1;align=center;verticalAlign=middle;resizable=0;points=[];autosize=1;strokeColor=none;fillColor=none;" parent="1" vertex="1">
          <mxGeometry x="-513" y="573" width="260" height="30" as="geometry" />
        </mxCell>
        <mxCell id="jNYN7gTXVCN3KIV63mF9-17" style="edgeStyle=none;shape=connector;rounded=0;orthogonalLoop=1;jettySize=auto;html=1;exitX=1;exitY=0.5;exitDx=0;exitDy=0;entryX=0;entryY=0.5;entryDx=0;entryDy=0;labelBackgroundColor=default;strokeColor=default;strokeWidth=3;fontFamily=Helvetica;fontSize=11;fontColor=default;endArrow=classic;" parent="1" source="jNYN7gTXVCN3KIV63mF9-10" target="jNYN7gTXVCN3KIV63mF9-31" edge="1">
          <mxGeometry relative="1" as="geometry" />
        </mxCell>
        <mxCell id="jNYN7gTXVCN3KIV63mF9-10" value="사운드" style="shape=datastore;whiteSpace=wrap;html=1;strokeWidth=3;" parent="1" vertex="1">
          <mxGeometry x="-33" y="545" width="80" height="80" as="geometry" />
        </mxCell>
        <mxCell id="jNYN7gTXVCN3KIV63mF9-14" style="rounded=0;orthogonalLoop=1;jettySize=auto;html=1;exitX=0;exitY=0.5;exitDx=0;exitDy=0;strokeWidth=3;" parent="1" source="jNYN7gTXVCN3KIV63mF9-13" target="jNYN7gTXVCN3KIV63mF9-10" edge="1">
          <mxGeometry relative="1" as="geometry" />
        </mxCell>
        <mxCell id="jNYN7gTXVCN3KIV63mF9-15" style="edgeStyle=none;shape=connector;rounded=0;orthogonalLoop=1;jettySize=auto;html=1;exitX=0;exitY=0.5;exitDx=0;exitDy=0;entryX=-0.017;entryY=0.609;entryDx=0;entryDy=0;labelBackgroundColor=default;strokeColor=default;strokeWidth=3;fontFamily=Helvetica;fontSize=11;fontColor=default;endArrow=classic;entryPerimeter=0;" parent="1" source="jNYN7gTXVCN3KIV63mF9-13" target="jNYN7gTXVCN3KIV63mF9-8" edge="1">
          <mxGeometry relative="1" as="geometry" />
        </mxCell>
        <mxCell id="jNYN7gTXVCN3KIV63mF9-13" value="Unity&lt;br&gt;Engine" style="shape=datastore;whiteSpace=wrap;html=1;strokeWidth=3;" parent="1" vertex="1">
          <mxGeometry x="-243" y="573" width="80" height="80" as="geometry" />
        </mxCell>
        <mxCell id="jNYN7gTXVCN3KIV63mF9-26" style="edgeStyle=none;shape=connector;rounded=0;orthogonalLoop=1;jettySize=auto;html=1;exitX=0;exitY=0.5;exitDx=0;exitDy=0;entryX=0.5;entryY=0;entryDx=0;entryDy=0;labelBackgroundColor=default;strokeColor=default;strokeWidth=3;fontFamily=Helvetica;fontSize=11;fontColor=default;startArrow=none;startFill=0;endArrow=classic;" parent="1" source="jNYN7gTXVCN3KIV63mF9-19" target="jNYN7gTXVCN3KIV63mF9-25" edge="1">
          <mxGeometry relative="1" as="geometry" />
        </mxCell>
        <mxCell id="jNYN7gTXVCN3KIV63mF9-19" value="게임 플레이&lt;br&gt;설정사항" style="shape=datastore;whiteSpace=wrap;html=1;strokeWidth=3;" parent="1" vertex="1">
          <mxGeometry x="747" y="450" width="80" height="80" as="geometry" />
        </mxCell>
        <mxCell id="jNYN7gTXVCN3KIV63mF9-25" value="&lt;span style=&quot;font-size: 19px;&quot;&gt;게임로직&lt;/span&gt;" style="rounded=0;whiteSpace=wrap;html=1;fillColor=none;strokeWidth=4;" parent="1" vertex="1">
          <mxGeometry x="267" y="595" width="120" height="60" as="geometry" />
        </mxCell>
        <mxCell id="jNYN7gTXVCN3KIV63mF9-29" style="edgeStyle=none;shape=connector;rounded=0;orthogonalLoop=1;jettySize=auto;html=1;exitX=0.5;exitY=1;exitDx=0;exitDy=0;entryX=1;entryY=0.5;entryDx=0;entryDy=0;labelBackgroundColor=default;strokeColor=default;strokeWidth=3;fontFamily=Helvetica;fontSize=11;fontColor=default;startArrow=none;startFill=0;endArrow=classic;" parent="1" source="jNYN7gTXVCN3KIV63mF9-27" target="jNYN7gTXVCN3KIV63mF9-6" edge="1">
          <mxGeometry relative="1" as="geometry" />
        </mxCell>
        <mxCell id="jNYN7gTXVCN3KIV63mF9-27" value="플레이 로그&lt;br&gt;캐시" style="shape=datastore;whiteSpace=wrap;html=1;strokeWidth=3;" parent="1" vertex="1">
          <mxGeometry x="747" y="585" width="80" height="80" as="geometry" />
        </mxCell>
        <mxCell id="jNYN7gTXVCN3KIV63mF9-31" value="로컬 저장소" style="shape=datastore;whiteSpace=wrap;html=1;strokeWidth=3;" parent="1" vertex="1">
          <mxGeometry x="160" y="575" width="80" height="80" as="geometry" />
        </mxCell>
      </root>
    </mxGraphModel>
  </diagram>
  <diagram id="gg_a31nnc3odHMOldN3p" name="시퀀스다이어그램_게임플레이">
    <mxGraphModel dx="1026" dy="604" grid="1" gridSize="10" guides="1" tooltips="1" connect="1" arrows="1" fold="1" page="1" pageScale="1" pageWidth="827" pageHeight="1169" math="0" shadow="0">
      <root>
        <mxCell id="0" />
        <mxCell id="1" parent="0" />
        <mxCell id="geC--euPAdbp1gMqMMYf-9" value="&lt;font style=&quot;font-size: 19px;&quot;&gt;사용자&lt;/font&gt;" style="rounded=0;whiteSpace=wrap;html=1;fontFamily=Helvetica;fontSize=11;fillColor=#dae8fc;strokeColor=#6c8ebf;strokeWidth=3;fontStyle=1" parent="1" vertex="1">
          <mxGeometry x="60" y="170" width="120" height="40" as="geometry" />
        </mxCell>
        <mxCell id="geC--euPAdbp1gMqMMYf-10" value="&lt;font style=&quot;font-size: 15px;&quot;&gt;FAT 시뮬레이터&lt;br&gt;게임 시작&lt;br&gt;&lt;/font&gt;" style="rounded=0;whiteSpace=wrap;html=1;fontFamily=Helvetica;fontSize=11;fillColor=#dae8fc;strokeColor=#6c8ebf;strokeWidth=3;fontStyle=1" parent="1" vertex="1">
          <mxGeometry x="300" y="170" width="120" height="40" as="geometry" />
        </mxCell>
        <mxCell id="geC--euPAdbp1gMqMMYf-11" value="&lt;font style=&quot;font-size: 19px;&quot;&gt;메인캐릭터&lt;/font&gt;" style="rounded=0;whiteSpace=wrap;html=1;fontFamily=Helvetica;fontSize=11;fillColor=#dae8fc;strokeColor=#6c8ebf;strokeWidth=3;fontStyle=1" parent="1" vertex="1">
          <mxGeometry x="540" y="170" width="120" height="40" as="geometry" />
        </mxCell>
        <mxCell id="geC--euPAdbp1gMqMMYf-12" value="&lt;font style=&quot;font-size: 19px;&quot;&gt;NPC&lt;/font&gt;" style="rounded=0;whiteSpace=wrap;html=1;fontFamily=Helvetica;fontSize=11;fillColor=#dae8fc;strokeColor=#6c8ebf;strokeWidth=3;fontStyle=1" parent="1" vertex="1">
          <mxGeometry x="780" y="170" width="120" height="40" as="geometry" />
        </mxCell>
        <mxCell id="geC--euPAdbp1gMqMMYf-13" value="&lt;span style=&quot;font-size: 19px;&quot;&gt;응급환자&lt;/span&gt;" style="rounded=0;whiteSpace=wrap;html=1;fontFamily=Helvetica;fontSize=11;fillColor=#dae8fc;strokeColor=#6c8ebf;strokeWidth=3;fontStyle=1" parent="1" vertex="1">
          <mxGeometry x="1260" y="170" width="120" height="40" as="geometry" />
        </mxCell>
        <mxCell id="geC--euPAdbp1gMqMMYf-14" value="&lt;font style=&quot;font-size: 15px;&quot;&gt;FAT 시뮬레이터&lt;br style=&quot;border-color: var(--border-color);&quot;&gt;게임 끝&lt;/font&gt;" style="rounded=0;whiteSpace=wrap;html=1;fontFamily=Helvetica;fontSize=11;fillColor=#dae8fc;strokeColor=#6c8ebf;strokeWidth=3;fontStyle=1" parent="1" vertex="1">
          <mxGeometry x="1500" y="170" width="120" height="40" as="geometry" />
        </mxCell>
        <mxCell id="geC--euPAdbp1gMqMMYf-15" value="" style="endArrow=none;dashed=1;html=1;dashPattern=1 1;strokeWidth=3;rounded=0;labelBackgroundColor=default;strokeColor=default;fontFamily=Helvetica;fontSize=11;fontColor=default;shape=connector;entryX=0.5;entryY=1;entryDx=0;entryDy=0;fontStyle=1" parent="1" target="geC--euPAdbp1gMqMMYf-9" edge="1">
          <mxGeometry width="50" height="50" relative="1" as="geometry">
            <mxPoint x="120" y="760" as="sourcePoint" />
            <mxPoint x="150" y="-500" as="targetPoint" />
          </mxGeometry>
        </mxCell>
        <mxCell id="geC--euPAdbp1gMqMMYf-17" value="" style="endArrow=none;dashed=1;html=1;dashPattern=1 1;strokeWidth=3;rounded=0;labelBackgroundColor=default;strokeColor=default;fontFamily=Helvetica;fontSize=11;fontColor=default;shape=connector;entryX=0.5;entryY=1;entryDx=0;entryDy=0;fontStyle=1" parent="1" target="geC--euPAdbp1gMqMMYf-10" edge="1">
          <mxGeometry width="50" height="50" relative="1" as="geometry">
            <mxPoint x="360" y="760" as="sourcePoint" />
            <mxPoint x="130" y="220" as="targetPoint" />
          </mxGeometry>
        </mxCell>
        <mxCell id="geC--euPAdbp1gMqMMYf-18" value="" style="endArrow=none;dashed=1;html=1;dashPattern=1 1;strokeWidth=3;rounded=0;labelBackgroundColor=default;strokeColor=default;fontFamily=Helvetica;fontSize=11;fontColor=default;shape=connector;entryX=0.5;entryY=1;entryDx=0;entryDy=0;fontStyle=1" parent="1" target="geC--euPAdbp1gMqMMYf-11" edge="1">
          <mxGeometry width="50" height="50" relative="1" as="geometry">
            <mxPoint x="600" y="760" as="sourcePoint" />
            <mxPoint x="370" y="220" as="targetPoint" />
          </mxGeometry>
        </mxCell>
        <mxCell id="geC--euPAdbp1gMqMMYf-19" value="" style="endArrow=none;dashed=1;html=1;dashPattern=1 1;strokeWidth=3;rounded=0;labelBackgroundColor=default;strokeColor=default;fontFamily=Helvetica;fontSize=11;fontColor=default;shape=connector;entryX=0.5;entryY=1;entryDx=0;entryDy=0;fontStyle=1" parent="1" target="geC--euPAdbp1gMqMMYf-12" edge="1">
          <mxGeometry width="50" height="50" relative="1" as="geometry">
            <mxPoint x="840" y="761.6666666666666" as="sourcePoint" />
            <mxPoint x="610" y="220" as="targetPoint" />
          </mxGeometry>
        </mxCell>
        <mxCell id="geC--euPAdbp1gMqMMYf-20" value="" style="endArrow=none;dashed=1;html=1;dashPattern=1 1;strokeWidth=3;rounded=0;labelBackgroundColor=default;strokeColor=default;fontFamily=Helvetica;fontSize=11;fontColor=default;shape=connector;entryX=0.5;entryY=1;entryDx=0;entryDy=0;fontStyle=1" parent="1" target="geC--euPAdbp1gMqMMYf-13" edge="1">
          <mxGeometry width="50" height="50" relative="1" as="geometry">
            <mxPoint x="1320" y="760" as="sourcePoint" />
            <mxPoint x="1090" y="220" as="targetPoint" />
          </mxGeometry>
        </mxCell>
        <mxCell id="geC--euPAdbp1gMqMMYf-21" value="" style="endArrow=none;dashed=1;html=1;dashPattern=1 1;strokeWidth=3;rounded=0;labelBackgroundColor=default;strokeColor=default;fontFamily=Helvetica;fontSize=11;fontColor=default;shape=connector;entryX=0.5;entryY=1;entryDx=0;entryDy=0;fontStyle=1" parent="1" source="4q6gIbNEI41S0KVjnYzy-24" target="geC--euPAdbp1gMqMMYf-14" edge="1">
          <mxGeometry width="50" height="50" relative="1" as="geometry">
            <mxPoint x="1560" y="760" as="sourcePoint" />
            <mxPoint x="1330" y="220" as="targetPoint" />
          </mxGeometry>
        </mxCell>
        <mxCell id="geC--euPAdbp1gMqMMYf-22" value="&lt;span style=&quot;font-size: 19px;&quot;&gt;응급환자의&lt;br&gt;하트&lt;br&gt;&lt;/span&gt;" style="rounded=0;whiteSpace=wrap;html=1;fontFamily=Helvetica;fontSize=11;fillColor=#dae8fc;strokeColor=#6c8ebf;strokeWidth=3;fontStyle=1" parent="1" vertex="1">
          <mxGeometry x="1020" y="170" width="120" height="40" as="geometry" />
        </mxCell>
        <mxCell id="geC--euPAdbp1gMqMMYf-23" value="" style="endArrow=none;dashed=1;html=1;dashPattern=1 1;strokeWidth=3;rounded=0;labelBackgroundColor=default;strokeColor=default;fontFamily=Helvetica;fontSize=11;fontColor=default;shape=connector;entryX=0.5;entryY=1;entryDx=0;entryDy=0;fontStyle=1" parent="1" target="geC--euPAdbp1gMqMMYf-22" edge="1">
          <mxGeometry width="50" height="50" relative="1" as="geometry">
            <mxPoint x="1080" y="770" as="sourcePoint" />
            <mxPoint x="850" y="220" as="targetPoint" />
          </mxGeometry>
        </mxCell>
        <mxCell id="geC--euPAdbp1gMqMMYf-24" value="&lt;font style=&quot;font-size: 19px;&quot;&gt;게임을 1번 플레이 할 때의 생명주기&amp;nbsp;&lt;/font&gt;" style="rounded=0;whiteSpace=wrap;html=1;fontFamily=Helvetica;fontSize=11;strokeWidth=3;fillColor=#b1ddf0;strokeColor=#10739e;fontStyle=1" parent="1" vertex="1">
          <mxGeometry x="310" y="110" width="1310" height="30" as="geometry" />
        </mxCell>
        <mxCell id="geC--euPAdbp1gMqMMYf-26" value="" style="endArrow=none;dashed=1;html=1;dashPattern=1 1;strokeWidth=3;rounded=0;labelBackgroundColor=default;strokeColor=default;fontFamily=Helvetica;fontSize=11;fontColor=default;shape=connector;entryX=0.5;entryY=1;entryDx=0;entryDy=0;fontStyle=1" parent="1" target="geC--euPAdbp1gMqMMYf-25" edge="1">
          <mxGeometry width="50" height="50" relative="1" as="geometry">
            <mxPoint x="120" y="680" as="sourcePoint" />
            <mxPoint x="120" y="210" as="targetPoint" />
          </mxGeometry>
        </mxCell>
        <mxCell id="geC--euPAdbp1gMqMMYf-28" value="" style="endArrow=classic;html=1;rounded=0;labelBackgroundColor=default;strokeColor=default;strokeWidth=3;fontFamily=Helvetica;fontSize=11;fontColor=default;shape=connector;entryX=0.146;entryY=1.105;entryDx=0;entryDy=0;exitX=0.093;exitY=-0.029;exitDx=0;exitDy=0;exitPerimeter=0;entryPerimeter=0;fontStyle=1" parent="1" source="geC--euPAdbp1gMqMMYf-25" target="geC--euPAdbp1gMqMMYf-27" edge="1">
          <mxGeometry width="50" height="50" relative="1" as="geometry">
            <mxPoint x="130" y="300" as="sourcePoint" />
            <mxPoint x="320" y="320" as="targetPoint" />
          </mxGeometry>
        </mxCell>
        <mxCell id="geC--euPAdbp1gMqMMYf-29" value="&lt;span style=&quot;font-size: 15px;&quot;&gt;스테이지&amp;nbsp;&lt;br&gt;&amp;amp;&lt;br&gt;응급처치 난이도&lt;br&gt;세팅&lt;br&gt;&lt;/span&gt;" style="edgeLabel;html=1;align=center;verticalAlign=middle;resizable=0;points=[];fontSize=11;fontFamily=Helvetica;fontColor=default;fontStyle=1" parent="geC--euPAdbp1gMqMMYf-28" vertex="1" connectable="0">
          <mxGeometry x="-0.161" y="1" relative="1" as="geometry">
            <mxPoint x="8" as="offset" />
          </mxGeometry>
        </mxCell>
        <mxCell id="geC--euPAdbp1gMqMMYf-67" style="edgeStyle=none;shape=connector;rounded=0;orthogonalLoop=1;jettySize=auto;html=1;exitX=0.399;exitY=0.052;exitDx=0;exitDy=0;entryX=0.023;entryY=1.089;entryDx=0;entryDy=0;labelBackgroundColor=default;strokeColor=default;strokeWidth=3;fontFamily=Helvetica;fontSize=11;fontColor=default;startArrow=none;startFill=0;endArrow=classic;exitPerimeter=0;fontStyle=1;entryPerimeter=0;" parent="1" source="geC--euPAdbp1gMqMMYf-27" target="geC--euPAdbp1gMqMMYf-35" edge="1">
          <mxGeometry relative="1" as="geometry" />
        </mxCell>
        <mxCell id="geC--euPAdbp1gMqMMYf-68" value="&lt;font style=&quot;font-size: 15px;&quot;&gt;스테이지 인트로 재생&lt;/font&gt;" style="edgeLabel;html=1;align=center;verticalAlign=middle;resizable=0;points=[];fontSize=11;fontFamily=Helvetica;fontColor=default;fontStyle=1" parent="geC--euPAdbp1gMqMMYf-67" vertex="1" connectable="0">
          <mxGeometry x="-0.2983" relative="1" as="geometry">
            <mxPoint x="23" as="offset" />
          </mxGeometry>
        </mxCell>
        <mxCell id="geC--euPAdbp1gMqMMYf-27" value="" style="rounded=0;whiteSpace=wrap;html=1;fontFamily=Helvetica;fontSize=11;fontColor=#ffffff;fillColor=#1ba1e2;strokeColor=#000000;rotation=90;strokeWidth=3;fontStyle=1" parent="1" vertex="1">
          <mxGeometry x="220" y="380" width="280" height="20" as="geometry" />
        </mxCell>
        <mxCell id="geC--euPAdbp1gMqMMYf-41" style="edgeStyle=none;shape=connector;rounded=0;orthogonalLoop=1;jettySize=auto;html=1;exitX=0.25;exitY=0;exitDx=0;exitDy=0;entryX=0.25;entryY=1;entryDx=0;entryDy=0;labelBackgroundColor=default;strokeColor=default;strokeWidth=3;fontFamily=Helvetica;fontSize=11;fontColor=default;startArrow=none;startFill=0;endArrow=classic;fontStyle=1" parent="1" source="geC--euPAdbp1gMqMMYf-46" target="geC--euPAdbp1gMqMMYf-39" edge="1">
          <mxGeometry relative="1" as="geometry">
            <mxPoint x="610" y="429" as="sourcePoint" />
            <mxPoint x="830" y="429" as="targetPoint" />
          </mxGeometry>
        </mxCell>
        <mxCell id="geC--euPAdbp1gMqMMYf-42" value="&lt;font style=&quot;font-size: 15px;&quot;&gt;선택지형 대화&lt;br&gt;&lt;/font&gt;" style="edgeLabel;html=1;align=center;verticalAlign=middle;resizable=0;points=[];fontSize=11;fontFamily=Helvetica;fontColor=default;fontStyle=1" parent="geC--euPAdbp1gMqMMYf-41" vertex="1" connectable="0">
          <mxGeometry x="-0.202" relative="1" as="geometry">
            <mxPoint x="12" y="1" as="offset" />
          </mxGeometry>
        </mxCell>
        <mxCell id="geC--euPAdbp1gMqMMYf-35" value="" style="rounded=0;whiteSpace=wrap;html=1;fontFamily=Helvetica;fontSize=11;fontColor=#ffffff;fillColor=#1ba1e2;strokeColor=#000000;rotation=90;strokeWidth=3;fontStyle=1" parent="1" vertex="1">
          <mxGeometry x="560" y="390" width="80" height="20" as="geometry" />
        </mxCell>
        <mxCell id="geC--euPAdbp1gMqMMYf-37" value="" style="endArrow=classic;html=1;rounded=0;labelBackgroundColor=default;strokeColor=default;strokeWidth=3;fontFamily=Helvetica;fontSize=11;fontColor=default;shape=connector;entryX=0.533;entryY=1.113;entryDx=0;entryDy=0;exitX=0.34;exitY=-0.138;exitDx=0;exitDy=0;exitPerimeter=0;fontStyle=1;entryPerimeter=0;" parent="1" source="geC--euPAdbp1gMqMMYf-25" target="geC--euPAdbp1gMqMMYf-27" edge="1">
          <mxGeometry width="50" height="50" relative="1" as="geometry">
            <mxPoint x="170" y="510" as="sourcePoint" />
            <mxPoint x="220" y="420" as="targetPoint" />
          </mxGeometry>
        </mxCell>
        <mxCell id="geC--euPAdbp1gMqMMYf-38" value="&lt;font style=&quot;font-size: 15px;&quot;&gt;정해진 맵 안에서&lt;br style=&quot;border-color: var(--border-color);&quot;&gt;캐릭터 움직이기&lt;/font&gt;" style="edgeLabel;html=1;align=center;verticalAlign=middle;resizable=0;points=[];fontSize=11;fontFamily=Helvetica;fontColor=default;fontStyle=1" parent="geC--euPAdbp1gMqMMYf-37" vertex="1" connectable="0">
          <mxGeometry x="0.3989" y="1" relative="1" as="geometry">
            <mxPoint x="-63" y="2" as="offset" />
          </mxGeometry>
        </mxCell>
        <mxCell id="geC--euPAdbp1gMqMMYf-44" style="edgeStyle=none;shape=connector;rounded=0;orthogonalLoop=1;jettySize=auto;html=1;exitX=0.25;exitY=1;exitDx=0;exitDy=0;labelBackgroundColor=default;strokeColor=default;strokeWidth=3;fontFamily=Helvetica;fontSize=11;fontColor=default;startArrow=none;startFill=0;endArrow=classic;entryX=0.25;entryY=0;entryDx=0;entryDy=0;fontStyle=1;dashed=1;" parent="1" edge="1">
          <mxGeometry relative="1" as="geometry">
            <mxPoint x="830" y="538" as="sourcePoint" />
            <mxPoint x="610" y="538" as="targetPoint" />
          </mxGeometry>
        </mxCell>
        <mxCell id="geC--euPAdbp1gMqMMYf-45" value="&lt;font style=&quot;font-size: 15px;&quot;&gt;반응 및 행동&lt;/font&gt;" style="edgeLabel;html=1;align=center;verticalAlign=middle;resizable=0;points=[];fontSize=11;fontFamily=Helvetica;fontColor=default;fontStyle=1" parent="geC--euPAdbp1gMqMMYf-44" vertex="1" connectable="0">
          <mxGeometry x="0.2475" relative="1" as="geometry">
            <mxPoint x="17" as="offset" />
          </mxGeometry>
        </mxCell>
        <mxCell id="geC--euPAdbp1gMqMMYf-58" style="edgeStyle=none;shape=connector;rounded=0;orthogonalLoop=1;jettySize=auto;html=1;exitX=0.25;exitY=0;exitDx=0;exitDy=0;labelBackgroundColor=default;strokeColor=default;strokeWidth=3;fontFamily=Helvetica;fontSize=11;fontColor=default;startArrow=none;startFill=0;endArrow=classic;entryX=0.146;entryY=0.925;entryDx=0;entryDy=0;entryPerimeter=0;fontStyle=1" parent="1" source="geC--euPAdbp1gMqMMYf-39" target="geC--euPAdbp1gMqMMYf-47" edge="1">
          <mxGeometry relative="1" as="geometry">
            <mxPoint x="1070" y="430" as="targetPoint" />
          </mxGeometry>
        </mxCell>
        <mxCell id="geC--euPAdbp1gMqMMYf-59" value="&lt;span style=&quot;font-size: 15px;&quot;&gt;대화 결과에 따른 &lt;br&gt;하트 반영&lt;/span&gt;" style="edgeLabel;html=1;align=center;verticalAlign=middle;resizable=0;points=[];fontSize=11;fontFamily=Helvetica;fontColor=default;fontStyle=1" parent="geC--euPAdbp1gMqMMYf-58" vertex="1" connectable="0">
          <mxGeometry x="-0.2564" y="3" relative="1" as="geometry">
            <mxPoint x="29" as="offset" />
          </mxGeometry>
        </mxCell>
        <mxCell id="geC--euPAdbp1gMqMMYf-51" style="edgeStyle=none;shape=connector;rounded=0;orthogonalLoop=1;jettySize=auto;html=1;entryX=0.5;entryY=1;entryDx=0;entryDy=0;labelBackgroundColor=default;strokeColor=default;strokeWidth=3;fontFamily=Helvetica;fontSize=11;fontColor=default;startArrow=none;startFill=0;endArrow=classic;exitX=0.5;exitY=0;exitDx=0;exitDy=0;fontStyle=1" parent="1" source="geC--euPAdbp1gMqMMYf-76" target="geC--euPAdbp1gMqMMYf-49" edge="1">
          <mxGeometry relative="1" as="geometry">
            <mxPoint x="1150" y="290" as="sourcePoint" />
          </mxGeometry>
        </mxCell>
        <mxCell id="geC--euPAdbp1gMqMMYf-52" value="&lt;font style=&quot;font-size: 15px;&quot;&gt;CPR 시행&lt;/font&gt;" style="edgeLabel;html=1;align=center;verticalAlign=middle;resizable=0;points=[];fontSize=11;fontFamily=Helvetica;fontColor=default;fontStyle=1" parent="geC--euPAdbp1gMqMMYf-51" vertex="1" connectable="0">
          <mxGeometry x="0.5854" relative="1" as="geometry">
            <mxPoint x="15" y="-2" as="offset" />
          </mxGeometry>
        </mxCell>
        <mxCell id="geC--euPAdbp1gMqMMYf-83" style="edgeStyle=none;shape=connector;rounded=0;orthogonalLoop=1;jettySize=auto;html=1;exitX=0.5;exitY=0;exitDx=0;exitDy=0;labelBackgroundColor=default;strokeColor=default;strokeWidth=3;fontFamily=Helvetica;fontSize=11;fontColor=default;startArrow=none;startFill=0;endArrow=classic;fontStyle=1" parent="1" source="geC--euPAdbp1gMqMMYf-47" edge="1">
          <mxGeometry relative="1" as="geometry">
            <mxPoint x="1550" y="550" as="targetPoint" />
          </mxGeometry>
        </mxCell>
        <mxCell id="geC--euPAdbp1gMqMMYf-84" value="&lt;font style=&quot;font-size: 15px;&quot;&gt;응급처치 성공 혹은 실패&lt;/font&gt;" style="edgeLabel;html=1;align=center;verticalAlign=middle;resizable=0;points=[];fontSize=11;fontFamily=Helvetica;fontColor=default;fontStyle=1" parent="geC--euPAdbp1gMqMMYf-83" vertex="1" connectable="0">
          <mxGeometry x="0.2336" y="2" relative="1" as="geometry">
            <mxPoint x="66" y="2" as="offset" />
          </mxGeometry>
        </mxCell>
        <mxCell id="geC--euPAdbp1gMqMMYf-47" value="" style="rounded=0;whiteSpace=wrap;html=1;fontFamily=Helvetica;fontSize=11;fontColor=#ffffff;fillColor=#1ba1e2;strokeColor=#000000;rotation=90;strokeWidth=3;fontStyle=1" parent="1" vertex="1">
          <mxGeometry x="1010" y="540" width="140" height="20" as="geometry" />
        </mxCell>
        <mxCell id="geC--euPAdbp1gMqMMYf-53" style="edgeStyle=none;shape=connector;rounded=0;orthogonalLoop=1;jettySize=auto;html=1;exitX=0.135;exitY=1.088;exitDx=0;exitDy=0;labelBackgroundColor=default;strokeColor=default;strokeWidth=3;fontFamily=Helvetica;fontSize=11;fontColor=default;startArrow=none;startFill=0;endArrow=classic;exitPerimeter=0;fontStyle=1" parent="1" source="geC--euPAdbp1gMqMMYf-49" edge="1">
          <mxGeometry relative="1" as="geometry">
            <mxPoint x="1090" y="611" as="targetPoint" />
          </mxGeometry>
        </mxCell>
        <mxCell id="geC--euPAdbp1gMqMMYf-54" value="&lt;font style=&quot;font-size: 15px;&quot;&gt;하트 개수 조정&lt;/font&gt;" style="edgeLabel;html=1;align=center;verticalAlign=middle;resizable=0;points=[];fontSize=11;fontFamily=Helvetica;fontColor=default;fontStyle=1" parent="geC--euPAdbp1gMqMMYf-53" vertex="1" connectable="0">
          <mxGeometry x="0.1843" y="-3" relative="1" as="geometry">
            <mxPoint x="31" as="offset" />
          </mxGeometry>
        </mxCell>
        <mxCell id="geC--euPAdbp1gMqMMYf-55" value="" style="endArrow=classic;html=1;rounded=0;labelBackgroundColor=default;strokeColor=default;strokeWidth=3;fontFamily=Helvetica;fontSize=11;fontColor=default;shape=connector;entryX=0.5;entryY=1;entryDx=0;entryDy=0;exitX=0.885;exitY=-0.185;exitDx=0;exitDy=0;exitPerimeter=0;fontStyle=1" parent="1" source="geC--euPAdbp1gMqMMYf-25" target="geC--euPAdbp1gMqMMYf-76" edge="1">
          <mxGeometry width="50" height="50" relative="1" as="geometry">
            <mxPoint x="150" y="650" as="sourcePoint" />
            <mxPoint x="260" y="540" as="targetPoint" />
          </mxGeometry>
        </mxCell>
        <mxCell id="geC--euPAdbp1gMqMMYf-57" value="&lt;font style=&quot;font-size: 15px;&quot;&gt;메인캐릭터 조작&lt;/font&gt;" style="edgeLabel;html=1;align=center;verticalAlign=middle;resizable=0;points=[];fontSize=11;fontFamily=Helvetica;fontColor=default;fontStyle=1" parent="geC--euPAdbp1gMqMMYf-55" vertex="1" connectable="0">
          <mxGeometry x="-0.5701" relative="1" as="geometry">
            <mxPoint y="-1" as="offset" />
          </mxGeometry>
        </mxCell>
        <mxCell id="geC--euPAdbp1gMqMMYf-63" style="shape=connector;rounded=0;orthogonalLoop=1;jettySize=auto;html=1;labelBackgroundColor=default;strokeColor=default;strokeWidth=3;fontFamily=Helvetica;fontSize=11;fontColor=default;startArrow=none;startFill=0;endArrow=classic;entryX=0.397;entryY=1.019;entryDx=0;entryDy=0;entryPerimeter=0;edgeStyle=elbowEdgeStyle;fontStyle=1;exitX=0.25;exitY=1;exitDx=0;exitDy=0;" parent="1" source="4q6gIbNEI41S0KVjnYzy-24" target="geC--euPAdbp1gMqMMYf-27" edge="1">
          <mxGeometry relative="1" as="geometry">
            <mxPoint x="1470" y="690" as="sourcePoint" />
            <mxPoint x="350" y="1038.421052631579" as="targetPoint" />
            <Array as="points">
              <mxPoint x="320" y="530" />
            </Array>
          </mxGeometry>
        </mxCell>
        <mxCell id="geC--euPAdbp1gMqMMYf-65" style="edgeStyle=orthogonalEdgeStyle;shape=connector;rounded=0;orthogonalLoop=1;jettySize=auto;html=1;labelBackgroundColor=default;strokeColor=default;strokeWidth=3;fontFamily=Helvetica;fontSize=11;fontColor=default;startArrow=none;startFill=0;endArrow=classic;fontStyle=1;entryX=0.097;entryY=0.886;entryDx=0;entryDy=0;entryPerimeter=0;exitX=0.75;exitY=1;exitDx=0;exitDy=0;" parent="1" source="4q6gIbNEI41S0KVjnYzy-24" target="geC--euPAdbp1gMqMMYf-25" edge="1">
          <mxGeometry relative="1" as="geometry">
            <mxPoint x="170" y="290" as="targetPoint" />
            <mxPoint x="1500" y="770" as="sourcePoint" />
            <Array as="points">
              <mxPoint x="80" y="740" />
              <mxPoint x="80" y="293" />
            </Array>
          </mxGeometry>
        </mxCell>
        <mxCell id="geC--euPAdbp1gMqMMYf-66" value="&lt;font style=&quot;font-size: 15px;&quot;&gt;플레이 결과&lt;br style=&quot;border-color: var(--border-color);&quot;&gt;&amp;amp;&lt;br style=&quot;border-color: var(--border-color);&quot;&gt;선택지 분기&lt;br style=&quot;border-color: var(--border-color);&quot;&gt;결과 반환&lt;br&gt;&lt;/font&gt;" style="edgeLabel;html=1;align=center;verticalAlign=middle;resizable=0;points=[];fontSize=11;fontFamily=Helvetica;fontColor=default;fontStyle=1" parent="geC--euPAdbp1gMqMMYf-65" vertex="1" connectable="0">
          <mxGeometry x="0.7353" y="-1" relative="1" as="geometry">
            <mxPoint x="-21" y="-118" as="offset" />
          </mxGeometry>
        </mxCell>
        <mxCell id="geC--euPAdbp1gMqMMYf-25" value="" style="rounded=0;whiteSpace=wrap;html=1;fontFamily=Helvetica;fontSize=11;fontColor=#ffffff;fillColor=#1ba1e2;strokeColor=#000000;rotation=90;strokeWidth=3;fontStyle=1" parent="1" vertex="1">
          <mxGeometry x="-100" y="460" width="440" height="20" as="geometry" />
        </mxCell>
        <mxCell id="geC--euPAdbp1gMqMMYf-72" value="" style="endArrow=classic;html=1;rounded=0;labelBackgroundColor=default;strokeColor=default;strokeWidth=3;fontFamily=Helvetica;fontSize=11;fontColor=default;shape=connector;entryX=0.25;entryY=1;entryDx=0;entryDy=0;exitX=0.892;exitY=-0.01;exitDx=0;exitDy=0;exitPerimeter=0;fontStyle=1" parent="1" source="geC--euPAdbp1gMqMMYf-27" target="geC--euPAdbp1gMqMMYf-46" edge="1">
          <mxGeometry width="50" height="50" relative="1" as="geometry">
            <mxPoint x="370" y="509" as="sourcePoint" />
            <mxPoint x="530" y="410" as="targetPoint" />
          </mxGeometry>
        </mxCell>
        <mxCell id="geC--euPAdbp1gMqMMYf-73" value="&lt;font style=&quot;font-size: 15px;&quot;&gt;맵의 특정 영역에 응급상황 발생&lt;/font&gt;" style="edgeLabel;html=1;align=center;verticalAlign=middle;resizable=0;points=[];fontSize=11;fontFamily=Helvetica;fontColor=default;fontStyle=1" parent="geC--euPAdbp1gMqMMYf-72" vertex="1" connectable="0">
          <mxGeometry x="-0.1722" y="1" relative="1" as="geometry">
            <mxPoint x="9" as="offset" />
          </mxGeometry>
        </mxCell>
        <mxCell id="geC--euPAdbp1gMqMMYf-46" value="" style="rounded=0;whiteSpace=wrap;html=1;fontFamily=Helvetica;fontSize=11;fontColor=#ffffff;fillColor=#1ba1e2;strokeColor=#000000;rotation=90;strokeWidth=3;fontStyle=1" parent="1" vertex="1">
          <mxGeometry x="560" y="510" width="80" height="20" as="geometry" />
        </mxCell>
        <mxCell id="4q6gIbNEI41S0KVjnYzy-2" style="edgeStyle=elbowEdgeStyle;rounded=0;orthogonalLoop=1;jettySize=auto;html=1;exitX=0.375;exitY=0.007;exitDx=0;exitDy=0;entryX=0.5;entryY=0;entryDx=0;entryDy=0;exitPerimeter=0;" parent="1" source="geC--euPAdbp1gMqMMYf-39" target="4q6gIbNEI41S0KVjnYzy-1" edge="1">
          <mxGeometry relative="1" as="geometry">
            <Array as="points">
              <mxPoint x="870" y="520" />
            </Array>
          </mxGeometry>
        </mxCell>
        <mxCell id="geC--euPAdbp1gMqMMYf-39" value="" style="rounded=0;whiteSpace=wrap;html=1;fontFamily=Helvetica;fontSize=11;fontColor=#ffffff;fillColor=#1ba1e2;strokeColor=#000000;rotation=90;strokeWidth=3;fontStyle=1" parent="1" vertex="1">
          <mxGeometry x="800" y="510" width="80" height="20" as="geometry" />
        </mxCell>
        <mxCell id="geC--euPAdbp1gMqMMYf-49" value="" style="rounded=0;whiteSpace=wrap;html=1;fontFamily=Helvetica;fontSize=11;fontColor=#ffffff;fillColor=#1ba1e2;strokeColor=#000000;rotation=90;strokeWidth=3;fontStyle=1" parent="1" vertex="1">
          <mxGeometry x="1280" y="630" width="80" height="20" as="geometry" />
        </mxCell>
        <mxCell id="geC--euPAdbp1gMqMMYf-60" value="" style="rounded=0;whiteSpace=wrap;html=1;fontFamily=Helvetica;fontSize=11;fontColor=#ffffff;fillColor=#1ba1e2;strokeColor=#000000;rotation=90;strokeWidth=3;fontStyle=1" parent="1" vertex="1">
          <mxGeometry x="1490.88" y="586.37" width="140.23" height="20" as="geometry" />
        </mxCell>
        <mxCell id="geC--euPAdbp1gMqMMYf-76" value="" style="rounded=0;whiteSpace=wrap;html=1;fontFamily=Helvetica;fontSize=11;fontColor=#ffffff;fillColor=#1ba1e2;strokeColor=#000000;rotation=90;strokeWidth=3;fontStyle=1" parent="1" vertex="1">
          <mxGeometry x="560" y="630" width="80" height="20" as="geometry" />
        </mxCell>
        <mxCell id="4q6gIbNEI41S0KVjnYzy-1" value="" style="rounded=1;whiteSpace=wrap;html=1;rotation=90;fillColor=#76608a;fontColor=#ffffff;strokeColor=#432D57;strokeWidth=2;" parent="1" vertex="1">
          <mxGeometry x="827" y="540" width="43" height="10" as="geometry" />
        </mxCell>
        <mxCell id="4q6gIbNEI41S0KVjnYzy-6" value="" style="endArrow=classic;html=1;rounded=0;strokeWidth=3;entryX=0.537;entryY=-0.051;entryDx=0;entryDy=0;entryPerimeter=0;exitX=0.5;exitY=1;exitDx=0;exitDy=0;dashed=1;" parent="1" source="geC--euPAdbp1gMqMMYf-35" target="geC--euPAdbp1gMqMMYf-27" edge="1">
          <mxGeometry width="50" height="50" relative="1" as="geometry">
            <mxPoint x="520" y="450" as="sourcePoint" />
            <mxPoint x="570" y="400" as="targetPoint" />
          </mxGeometry>
        </mxCell>
        <mxCell id="4q6gIbNEI41S0KVjnYzy-8" value="&lt;b&gt;&lt;font style=&quot;font-size: 15px;&quot;&gt;맵 안에서 좌우 이동&lt;/font&gt;&lt;/b&gt;" style="edgeLabel;html=1;align=center;verticalAlign=middle;resizable=0;points=[];fontSize=11;fontFamily=Helvetica;fontColor=default;" parent="4q6gIbNEI41S0KVjnYzy-6" vertex="1" connectable="0">
          <mxGeometry x="0.1259" y="2" relative="1" as="geometry">
            <mxPoint x="13" y="-2" as="offset" />
          </mxGeometry>
        </mxCell>
        <mxCell id="4q6gIbNEI41S0KVjnYzy-9" value="&lt;font color=&quot;#6666ff&quot; style=&quot;font-size: 12px;&quot;&gt;&lt;b&gt;선택한 난이도와 &lt;br&gt;스테이지에 맞는 선택지 및 판정&lt;/b&gt;&lt;/font&gt;" style="text;html=1;strokeColor=none;fillColor=default;align=left;verticalAlign=middle;whiteSpace=wrap;rounded=0;fontSize=11;fontFamily=Helvetica;fontColor=default;" parent="1" vertex="1">
          <mxGeometry x="880" y="520" width="160" height="30" as="geometry" />
        </mxCell>
        <mxCell id="4q6gIbNEI41S0KVjnYzy-10" value="" style="rounded=1;whiteSpace=wrap;html=1;rotation=90;fillColor=#76608a;fontColor=#ffffff;strokeColor=#432D57;strokeWidth=2;" parent="1" vertex="1">
          <mxGeometry x="1070" y="520" width="43" height="10" as="geometry" />
        </mxCell>
        <mxCell id="4q6gIbNEI41S0KVjnYzy-11" style="edgeStyle=elbowEdgeStyle;rounded=0;orthogonalLoop=1;jettySize=auto;html=1;exitX=0.067;exitY=-0.071;exitDx=0;exitDy=0;entryX=0.5;entryY=0;entryDx=0;entryDy=0;exitPerimeter=0;" parent="1" source="geC--euPAdbp1gMqMMYf-47" edge="1">
          <mxGeometry relative="1" as="geometry">
            <mxPoint x="1093" y="490" as="sourcePoint" />
            <mxPoint x="1097" y="525" as="targetPoint" />
            <Array as="points">
              <mxPoint x="1113" y="500" />
            </Array>
          </mxGeometry>
        </mxCell>
        <mxCell id="4q6gIbNEI41S0KVjnYzy-14" value="" style="endArrow=classic;html=1;rounded=0;labelBackgroundColor=default;strokeColor=default;strokeWidth=3;fontFamily=Helvetica;fontSize=11;fontColor=default;shape=connector;entryX=0.75;entryY=1;entryDx=0;entryDy=0;exitX=0.663;exitY=0.023;exitDx=0;exitDy=0;exitPerimeter=0;" parent="1" source="geC--euPAdbp1gMqMMYf-25" target="geC--euPAdbp1gMqMMYf-46" edge="1">
          <mxGeometry width="50" height="50" relative="1" as="geometry">
            <mxPoint x="130" y="540" as="sourcePoint" />
            <mxPoint x="470" y="440" as="targetPoint" />
          </mxGeometry>
        </mxCell>
        <mxCell id="4q6gIbNEI41S0KVjnYzy-15" value="&lt;font style=&quot;font-size: 15px;&quot;&gt;&lt;b&gt;NPC와의 대화 선택&lt;/b&gt;&lt;/font&gt;" style="edgeLabel;html=1;align=center;verticalAlign=middle;resizable=0;points=[];fontSize=11;fontFamily=Helvetica;fontColor=default;" parent="4q6gIbNEI41S0KVjnYzy-14" vertex="1" connectable="0">
          <mxGeometry x="-0.7243" y="2" relative="1" as="geometry">
            <mxPoint x="27" y="1" as="offset" />
          </mxGeometry>
        </mxCell>
        <mxCell id="4q6gIbNEI41S0KVjnYzy-16" value="" style="rounded=1;whiteSpace=wrap;html=1;rotation=90;fillColor=#76608a;fontColor=#ffffff;strokeColor=#432D57;strokeWidth=2;" parent="1" vertex="1">
          <mxGeometry x="1550" y="601" width="43" height="10" as="geometry" />
        </mxCell>
        <mxCell id="4q6gIbNEI41S0KVjnYzy-17" style="edgeStyle=elbowEdgeStyle;rounded=0;orthogonalLoop=1;jettySize=auto;html=1;exitX=0.067;exitY=-0.071;exitDx=0;exitDy=0;entryX=0.5;entryY=0;entryDx=0;entryDy=0;exitPerimeter=0;" parent="1" edge="1">
          <mxGeometry relative="1" as="geometry">
            <mxPoint x="1571" y="570" as="sourcePoint" />
            <mxPoint x="1577" y="606" as="targetPoint" />
            <Array as="points">
              <mxPoint x="1593" y="581" />
            </Array>
          </mxGeometry>
        </mxCell>
        <mxCell id="4q6gIbNEI41S0KVjnYzy-19" value="&lt;font color=&quot;#6666ff&quot; style=&quot;font-size: 12px;&quot;&gt;&lt;b&gt;선택한 난이도와 &lt;br&gt;스테이지에 맞는 판정&lt;/b&gt;&lt;/font&gt;" style="text;html=1;strokeColor=none;fillColor=default;align=left;verticalAlign=middle;whiteSpace=wrap;rounded=0;fontSize=11;fontFamily=Helvetica;fontColor=default;" parent="1" vertex="1">
          <mxGeometry x="1120" y="500" width="130" height="30" as="geometry" />
        </mxCell>
        <mxCell id="4q6gIbNEI41S0KVjnYzy-20" value="&lt;font color=&quot;#6666ff&quot;&gt;&lt;span style=&quot;font-size: 12px;&quot;&gt;&lt;b&gt;NPC 대화 및 응급처치 중&lt;br&gt;사용자의 선택 로그를 시각화&lt;br&gt;&lt;/b&gt;&lt;/span&gt;&lt;/font&gt;" style="text;html=1;strokeColor=none;fillColor=default;align=right;verticalAlign=middle;whiteSpace=wrap;rounded=0;fontSize=11;fontFamily=Helvetica;fontColor=default;" parent="1" vertex="1">
          <mxGeometry x="1371" y="571" width="170" height="30" as="geometry" />
        </mxCell>
        <mxCell id="4q6gIbNEI41S0KVjnYzy-25" value="" style="endArrow=none;dashed=1;html=1;dashPattern=1 1;strokeWidth=3;rounded=0;labelBackgroundColor=default;strokeColor=default;fontFamily=Helvetica;fontSize=11;fontColor=default;shape=connector;entryX=0.5;entryY=1;entryDx=0;entryDy=0;fontStyle=1" parent="1" target="4q6gIbNEI41S0KVjnYzy-24" edge="1">
          <mxGeometry width="50" height="50" relative="1" as="geometry">
            <mxPoint x="1560" y="760" as="sourcePoint" />
            <mxPoint x="1560" y="210" as="targetPoint" />
          </mxGeometry>
        </mxCell>
        <mxCell id="4q6gIbNEI41S0KVjnYzy-24" value="" style="rounded=0;whiteSpace=wrap;html=1;fontFamily=Helvetica;fontSize=11;fontColor=#ffffff;fillColor=#1ba1e2;strokeColor=#000000;rotation=90;strokeWidth=3;fontStyle=1" parent="1" vertex="1">
          <mxGeometry x="1520" y="710" width="80" height="20" as="geometry" />
        </mxCell>
        <mxCell id="4q6gIbNEI41S0KVjnYzy-26" value="" style="rounded=1;whiteSpace=wrap;html=1;rotation=90;fillColor=#76608a;fontColor=#ffffff;strokeColor=#432D57;strokeWidth=2;" parent="1" vertex="1">
          <mxGeometry x="1550" y="710" width="43" height="10" as="geometry" />
        </mxCell>
        <mxCell id="4q6gIbNEI41S0KVjnYzy-27" style="edgeStyle=elbowEdgeStyle;rounded=0;orthogonalLoop=1;jettySize=auto;html=1;exitX=0.067;exitY=-0.071;exitDx=0;exitDy=0;entryX=0.5;entryY=0;entryDx=0;entryDy=0;exitPerimeter=0;" parent="1" edge="1">
          <mxGeometry relative="1" as="geometry">
            <mxPoint x="1571" y="684" as="sourcePoint" />
            <mxPoint x="1577" y="720" as="targetPoint" />
            <Array as="points">
              <mxPoint x="1593" y="695" />
            </Array>
          </mxGeometry>
        </mxCell>
        <mxCell id="4q6gIbNEI41S0KVjnYzy-28" value="&lt;font color=&quot;#6666ff&quot;&gt;&lt;span style=&quot;font-size: 12px;&quot;&gt;&lt;b&gt;같은 연령, 스테이지, 난이도에서&lt;br&gt;리플레이 혹은 처음부터 시작&lt;br&gt;&lt;/b&gt;&lt;/span&gt;&lt;/font&gt;" style="text;html=1;strokeColor=none;fillColor=default;align=right;verticalAlign=middle;whiteSpace=wrap;rounded=0;fontSize=11;fontFamily=Helvetica;fontColor=default;" parent="1" vertex="1">
          <mxGeometry x="1371" y="705" width="170" height="30" as="geometry" />
        </mxCell>
        <mxCell id="XMXGoe9BCZhW58_QZ9dL-1" value="" style="rounded=1;whiteSpace=wrap;html=1;rotation=90;fillColor=#76608a;fontColor=#ffffff;strokeColor=#432D57;strokeWidth=2;" parent="1" vertex="1">
          <mxGeometry x="590" y="510" width="43" height="10" as="geometry" />
        </mxCell>
        <mxCell id="XMXGoe9BCZhW58_QZ9dL-2" style="edgeStyle=elbowEdgeStyle;rounded=0;orthogonalLoop=1;jettySize=auto;html=1;exitX=0.056;exitY=-0.069;exitDx=0;exitDy=0;entryX=0.5;entryY=0;entryDx=0;entryDy=0;exitPerimeter=0;" parent="1" source="geC--euPAdbp1gMqMMYf-46" edge="1">
          <mxGeometry relative="1" as="geometry">
            <mxPoint x="613" y="485" as="sourcePoint" />
            <mxPoint x="617" y="520" as="targetPoint" />
            <Array as="points">
              <mxPoint x="633" y="495" />
            </Array>
          </mxGeometry>
        </mxCell>
        <mxCell id="XMXGoe9BCZhW58_QZ9dL-3" value="&lt;font color=&quot;#6666ff&quot;&gt;&lt;span style=&quot;font-size: 12px;&quot;&gt;&lt;b&gt;사용자가 응급상황 아이콘 클릭, 인트로 종료 후 응급상황으로 줌인&lt;/b&gt;&lt;/span&gt;&lt;/font&gt;" style="text;html=1;strokeColor=none;fillColor=default;align=left;verticalAlign=middle;whiteSpace=wrap;rounded=0;fontSize=11;fontFamily=Helvetica;fontColor=default;" parent="1" vertex="1">
          <mxGeometry x="610" y="450" width="180" height="30" as="geometry" />
        </mxCell>
      </root>
    </mxGraphModel>
  </diagram>
  <diagram id="QfDeVWrampEJtCKLfvuA" name="시퀀스다이어그램_범례">
    <mxGraphModel dx="1026" dy="604" grid="1" gridSize="10" guides="1" tooltips="1" connect="1" arrows="1" fold="1" page="1" pageScale="1" pageWidth="827" pageHeight="1169" math="0" shadow="0">
      <root>
        <mxCell id="0" />
        <mxCell id="1" parent="0" />
        <mxCell id="JyKmPFWDc_23mJHD0QkK-2" value="" style="rounded=0;whiteSpace=wrap;html=1;fontFamily=Helvetica;fontSize=11;fontColor=default;strokeWidth=3;fillColor=none;" parent="1" vertex="1">
          <mxGeometry x="20" y="65" width="340" height="95" as="geometry" />
        </mxCell>
        <mxCell id="x1s4_i-G9uDtTkajej_E-1" value="&lt;font style=&quot;font-size: 19px;&quot;&gt;Lifeline&lt;/font&gt;" style="rounded=0;whiteSpace=wrap;html=1;fontFamily=Helvetica;fontSize=11;fillColor=#dae8fc;strokeColor=#6c8ebf;strokeWidth=3;fontStyle=1" parent="1" vertex="1">
          <mxGeometry x="130" y="90" width="120" height="40" as="geometry" />
        </mxCell>
        <mxCell id="JyKmPFWDc_23mJHD0QkK-1" value="&lt;font style=&quot;font-size: 19px;&quot;&gt;게임을 1번 플레이 할 때의 생명주기&amp;nbsp;&lt;/font&gt;" style="rounded=0;whiteSpace=wrap;html=1;fontFamily=Helvetica;fontSize=11;strokeWidth=3;fillColor=#b1ddf0;strokeColor=#10739e;fontStyle=1" parent="1" vertex="1">
          <mxGeometry x="30" y="50" width="320" height="30" as="geometry" />
        </mxCell>
        <mxCell id="JyKmPFWDc_23mJHD0QkK-3" style="edgeStyle=none;shape=connector;rounded=0;orthogonalLoop=1;jettySize=auto;html=1;exitX=0.5;exitY=1;exitDx=0;exitDy=0;labelBackgroundColor=default;strokeColor=default;strokeWidth=3;fontFamily=Helvetica;fontSize=11;fontColor=default;endArrow=classic;" parent="1" source="JyKmPFWDc_23mJHD0QkK-2" target="JyKmPFWDc_23mJHD0QkK-2" edge="1">
          <mxGeometry relative="1" as="geometry" />
        </mxCell>
        <mxCell id="JyKmPFWDc_23mJHD0QkK-4" value="&lt;font style=&quot;font-size: 19px;&quot;&gt;Lifeline&lt;/font&gt;" style="rounded=0;whiteSpace=wrap;html=1;fontFamily=Helvetica;fontSize=11;fillColor=#dae8fc;strokeColor=#6c8ebf;strokeWidth=3;fontStyle=1" parent="1" vertex="1">
          <mxGeometry x="400" y="90" width="120" height="40" as="geometry" />
        </mxCell>
        <mxCell id="UhP9FtGylSsYX-Gy3VYI-1" value="" style="rounded=0;whiteSpace=wrap;html=1;fontFamily=Helvetica;fontSize=11;fontColor=#ffffff;fillColor=#1ba1e2;strokeColor=#000000;rotation=90;strokeWidth=3;fontStyle=1" parent="1" vertex="1">
          <mxGeometry x="530" y="100" width="80" height="20" as="geometry" />
        </mxCell>
        <mxCell id="rJpA8fo0YhQ7a7kgvRmO-4" value="" style="rounded=0;whiteSpace=wrap;html=1;fontFamily=Helvetica;fontSize=11;fontColor=default;strokeWidth=3;fillColor=none;" parent="1" vertex="1">
          <mxGeometry x="620" y="72.5" width="290" height="75" as="geometry" />
        </mxCell>
        <mxCell id="UhP9FtGylSsYX-Gy3VYI-2" value="&lt;b&gt;&lt;font style=&quot;font-size: 19px;&quot;&gt;Activation&lt;/font&gt;&lt;/b&gt;" style="text;html=1;strokeColor=none;fillColor=none;align=center;verticalAlign=middle;whiteSpace=wrap;rounded=0;fontSize=11;fontFamily=Helvetica;fontColor=default;" parent="1" vertex="1">
          <mxGeometry x="540" y="150" width="60" height="30" as="geometry" />
        </mxCell>
        <mxCell id="rJpA8fo0YhQ7a7kgvRmO-1" style="edgeStyle=none;shape=connector;rounded=0;orthogonalLoop=1;jettySize=auto;html=1;exitX=0.399;exitY=0.052;exitDx=0;exitDy=0;entryX=0.023;entryY=1.089;entryDx=0;entryDy=0;labelBackgroundColor=default;strokeColor=default;strokeWidth=3;fontFamily=Helvetica;fontSize=11;fontColor=default;startArrow=none;startFill=0;endArrow=classic;exitPerimeter=0;fontStyle=1;entryPerimeter=0;" parent="1" edge="1">
          <mxGeometry relative="1" as="geometry">
            <mxPoint x="660" y="102.17" as="sourcePoint" />
            <mxPoint x="879" y="102.17" as="targetPoint" />
          </mxGeometry>
        </mxCell>
        <mxCell id="rJpA8fo0YhQ7a7kgvRmO-5" value="&lt;font style=&quot;font-size: 19px;&quot;&gt;&lt;b&gt;동기 메시지&lt;/b&gt;&lt;/font&gt;" style="edgeLabel;html=1;align=center;verticalAlign=middle;resizable=0;points=[];fontSize=11;fontFamily=Helvetica;fontColor=default;" parent="rJpA8fo0YhQ7a7kgvRmO-1" vertex="1" connectable="0">
          <mxGeometry x="-0.0778" y="2" relative="1" as="geometry">
            <mxPoint x="5" as="offset" />
          </mxGeometry>
        </mxCell>
        <mxCell id="wEfRw0CwDwu4EmcGkWwk-1" style="edgeStyle=none;shape=connector;rounded=0;orthogonalLoop=1;jettySize=auto;html=1;exitX=0.25;exitY=1;exitDx=0;exitDy=0;labelBackgroundColor=default;strokeColor=default;strokeWidth=3;fontFamily=Helvetica;fontSize=11;fontColor=default;startArrow=none;startFill=0;endArrow=classic;entryX=0.25;entryY=0;entryDx=0;entryDy=0;fontStyle=1;dashed=1;" parent="1" edge="1">
          <mxGeometry relative="1" as="geometry">
            <mxPoint x="880" y="123" as="sourcePoint" />
            <mxPoint x="660" y="123" as="targetPoint" />
          </mxGeometry>
        </mxCell>
        <mxCell id="wEfRw0CwDwu4EmcGkWwk-2" value="&lt;span style=&quot;font-size: 19px;&quot;&gt;동기메시지&lt;/span&gt;" style="edgeLabel;html=1;align=center;verticalAlign=middle;resizable=0;points=[];fontSize=11;fontFamily=Helvetica;fontColor=default;fontStyle=1" parent="wEfRw0CwDwu4EmcGkWwk-1" vertex="1" connectable="0">
          <mxGeometry x="0.2475" relative="1" as="geometry">
            <mxPoint x="27" as="offset" />
          </mxGeometry>
        </mxCell>
        <mxCell id="JibQtoV90ZDglJwyFFzO-1" style="edgeStyle=none;shape=connector;rounded=0;orthogonalLoop=1;jettySize=auto;html=1;exitX=1;exitY=0.5;exitDx=0;exitDy=0;labelBackgroundColor=default;strokeColor=default;strokeWidth=3;fontFamily=Helvetica;fontSize=11;fontColor=default;endArrow=classic;" parent="1" source="rJpA8fo0YhQ7a7kgvRmO-4" target="rJpA8fo0YhQ7a7kgvRmO-4" edge="1">
          <mxGeometry relative="1" as="geometry" />
        </mxCell>
        <mxCell id="JibQtoV90ZDglJwyFFzO-2" value="" style="rounded=0;whiteSpace=wrap;html=1;fontFamily=Helvetica;fontSize=11;fontColor=default;strokeWidth=3;fillColor=none;" parent="1" vertex="1">
          <mxGeometry x="951" y="72.5" width="290" height="75" as="geometry" />
        </mxCell>
        <mxCell id="u_0QJCLUVqsE8M0FJOqV-1" style="edgeStyle=none;shape=connector;rounded=0;orthogonalLoop=1;jettySize=auto;html=1;exitX=0.399;exitY=0.052;exitDx=0;exitDy=0;entryX=0.023;entryY=1.089;entryDx=0;entryDy=0;labelBackgroundColor=default;strokeColor=default;strokeWidth=3;fontFamily=Helvetica;fontSize=11;fontColor=default;startArrow=none;startFill=0;endArrow=classic;exitPerimeter=0;fontStyle=1;entryPerimeter=0;" parent="1" edge="1">
          <mxGeometry relative="1" as="geometry">
            <mxPoint x="986.5" y="109.58000000000001" as="sourcePoint" />
            <mxPoint x="1205.5" y="109.58000000000001" as="targetPoint" />
          </mxGeometry>
        </mxCell>
        <mxCell id="u_0QJCLUVqsE8M0FJOqV-2" value="&lt;font style=&quot;font-size: 19px;&quot;&gt;비동기메시지&lt;/font&gt;" style="edgeLabel;html=1;align=center;verticalAlign=middle;resizable=0;points=[];fontSize=11;fontFamily=Helvetica;fontColor=default;fontStyle=1" parent="u_0QJCLUVqsE8M0FJOqV-1" vertex="1" connectable="0">
          <mxGeometry x="-0.2983" relative="1" as="geometry">
            <mxPoint x="23" as="offset" />
          </mxGeometry>
        </mxCell>
        <mxCell id="ZVAfNovEIN1PHxyQDvBt-1" value="" style="rounded=1;whiteSpace=wrap;html=1;rotation=90;fillColor=#76608a;fontColor=#ffffff;strokeColor=#432D57;strokeWidth=2;" parent="1" vertex="1">
          <mxGeometry x="1280" y="106" width="43" height="10" as="geometry" />
        </mxCell>
        <mxCell id="ZVAfNovEIN1PHxyQDvBt-2" style="edgeStyle=elbowEdgeStyle;rounded=0;orthogonalLoop=1;jettySize=auto;html=1;exitX=0.056;exitY=-0.069;exitDx=0;exitDy=0;entryX=0.5;entryY=0;entryDx=0;entryDy=0;exitPerimeter=0;" parent="1" edge="1">
          <mxGeometry relative="1" as="geometry">
            <mxPoint x="1301" y="80" as="sourcePoint" />
            <mxPoint x="1307" y="116" as="targetPoint" />
            <Array as="points">
              <mxPoint x="1323" y="91" />
            </Array>
          </mxGeometry>
        </mxCell>
        <mxCell id="ZVAfNovEIN1PHxyQDvBt-3" value="&lt;b&gt;&lt;font style=&quot;font-size: 19px;&quot;&gt;자체&lt;br&gt;메시지&lt;br&gt;&lt;/font&gt;&lt;/b&gt;" style="text;html=1;strokeColor=none;fillColor=none;align=center;verticalAlign=middle;whiteSpace=wrap;rounded=0;fontSize=11;fontFamily=Helvetica;fontColor=default;" parent="1" vertex="1">
          <mxGeometry x="1271.5" y="140" width="60" height="30" as="geometry" />
        </mxCell>
        <mxCell id="lbZUpKoXF9roU976Fw-6-1" value="" style="endArrow=none;dashed=1;html=1;dashPattern=1 1;strokeWidth=2;rounded=0;labelBackgroundColor=default;strokeColor=default;fontFamily=Helvetica;fontSize=11;fontColor=default;shape=connector;exitX=0.5;exitY=1;exitDx=0;exitDy=0;entryX=0.5;entryY=1;entryDx=0;entryDy=0;" parent="1" source="x1s4_i-G9uDtTkajej_E-1" target="JyKmPFWDc_23mJHD0QkK-2" edge="1">
          <mxGeometry width="50" height="50" relative="1" as="geometry">
            <mxPoint x="280" y="100" as="sourcePoint" />
            <mxPoint x="330" y="50" as="targetPoint" />
          </mxGeometry>
        </mxCell>
        <mxCell id="lbZUpKoXF9roU976Fw-6-2" value="&lt;b&gt;&lt;font style=&quot;font-size: 19px;&quot;&gt;시간의 경과&lt;/font&gt;&lt;/b&gt;" style="text;html=1;strokeColor=none;fillColor=none;align=center;verticalAlign=middle;whiteSpace=wrap;rounded=0;fontSize=11;fontFamily=Helvetica;fontColor=default;" parent="1" vertex="1">
          <mxGeometry x="135" y="170" width="110" height="30" as="geometry" />
        </mxCell>
        <mxCell id="lbZUpKoXF9roU976Fw-6-3" value="" style="endArrow=none;dashed=1;html=1;dashPattern=1 1;strokeWidth=2;rounded=0;labelBackgroundColor=default;strokeColor=default;fontFamily=Helvetica;fontSize=11;fontColor=default;shape=connector;exitX=0.5;exitY=1;exitDx=0;exitDy=0;entryX=0.5;entryY=1;entryDx=0;entryDy=0;" parent="1" edge="1">
          <mxGeometry width="50" height="50" relative="1" as="geometry">
            <mxPoint x="459.81" y="130" as="sourcePoint" />
            <mxPoint x="459.81" y="160" as="targetPoint" />
          </mxGeometry>
        </mxCell>
        <mxCell id="lbZUpKoXF9roU976Fw-6-4" value="&lt;b&gt;&lt;font style=&quot;font-size: 19px;&quot;&gt;시간의 경과&lt;/font&gt;&lt;/b&gt;" style="text;html=1;strokeColor=none;fillColor=none;align=center;verticalAlign=middle;whiteSpace=wrap;rounded=0;fontSize=11;fontFamily=Helvetica;fontColor=default;" parent="1" vertex="1">
          <mxGeometry x="405" y="170" width="110" height="30" as="geometry" />
        </mxCell>
      </root>
    </mxGraphModel>
  </diagram>
  <diagram id="tGoB4kQIexFY38BEvtkA" name="FaT Architecture(Simplyfied)">
    <mxGraphModel dx="1026" dy="661" grid="1" gridSize="10" guides="1" tooltips="1" connect="1" arrows="1" fold="1" page="1" pageScale="1" pageWidth="827" pageHeight="1169" math="0" shadow="0">
      <root>
        <mxCell id="0" />
        <mxCell id="1" parent="0" />
        <mxCell id="9Y4i-fZ_1Q8IJUVzu4Gh-5" style="edgeStyle=orthogonalEdgeStyle;shape=connector;rounded=0;orthogonalLoop=1;jettySize=auto;html=1;exitX=0;exitY=0.5;exitDx=0;exitDy=0;entryX=0.5;entryY=0;entryDx=0;entryDy=0;labelBackgroundColor=default;strokeColor=default;strokeWidth=3;fontFamily=Helvetica;fontSize=11;fontColor=default;startArrow=none;startFill=0;endArrow=classic;" parent="1" source="9Y4i-fZ_1Q8IJUVzu4Gh-1" target="9Y4i-fZ_1Q8IJUVzu4Gh-3" edge="1">
          <mxGeometry relative="1" as="geometry" />
        </mxCell>
        <mxCell id="9Y4i-fZ_1Q8IJUVzu4Gh-6" style="edgeStyle=orthogonalEdgeStyle;shape=connector;rounded=0;orthogonalLoop=1;jettySize=auto;html=1;exitX=1;exitY=0.5;exitDx=0;exitDy=0;entryX=0.5;entryY=0;entryDx=0;entryDy=0;labelBackgroundColor=default;strokeColor=default;strokeWidth=3;fontFamily=Helvetica;fontSize=11;fontColor=default;startArrow=none;startFill=0;endArrow=classic;" parent="1" source="9Y4i-fZ_1Q8IJUVzu4Gh-1" target="9Y4i-fZ_1Q8IJUVzu4Gh-4" edge="1">
          <mxGeometry relative="1" as="geometry" />
        </mxCell>
        <mxCell id="9Y4i-fZ_1Q8IJUVzu4Gh-7" style="edgeStyle=orthogonalEdgeStyle;shape=connector;rounded=0;orthogonalLoop=1;jettySize=auto;html=1;exitX=0.5;exitY=1;exitDx=0;exitDy=0;labelBackgroundColor=default;strokeColor=default;strokeWidth=3;fontFamily=Helvetica;fontSize=11;fontColor=default;startArrow=none;startFill=0;endArrow=classic;" parent="1" source="9Y4i-fZ_1Q8IJUVzu4Gh-1" target="9Y4i-fZ_1Q8IJUVzu4Gh-2" edge="1">
          <mxGeometry relative="1" as="geometry" />
        </mxCell>
        <mxCell id="9Y4i-fZ_1Q8IJUVzu4Gh-1" value="&lt;font style=&quot;font-size: 19px;&quot;&gt;Unity Engine&lt;/font&gt;" style="rounded=0;whiteSpace=wrap;html=1;fontFamily=Helvetica;fontSize=11;fontColor=default;strokeWidth=3;fillColor=none;" parent="1" vertex="1">
          <mxGeometry x="354" y="200" width="120" height="60" as="geometry" />
        </mxCell>
        <mxCell id="9Y4i-fZ_1Q8IJUVzu4Gh-2" value="&lt;font style=&quot;font-size: 19px;&quot;&gt;FaT Simulator&lt;/font&gt;" style="rounded=0;whiteSpace=wrap;html=1;fontFamily=Helvetica;fontSize=11;fontColor=default;strokeWidth=3;fillColor=none;" parent="1" vertex="1">
          <mxGeometry x="336" y="300" width="156" height="40" as="geometry" />
        </mxCell>
        <mxCell id="9Y4i-fZ_1Q8IJUVzu4Gh-8" style="edgeStyle=orthogonalEdgeStyle;shape=connector;rounded=0;orthogonalLoop=1;jettySize=auto;html=1;exitX=1;exitY=0.5;exitDx=0;exitDy=0;labelBackgroundColor=default;strokeColor=default;strokeWidth=3;fontFamily=Helvetica;fontSize=11;fontColor=default;startArrow=none;startFill=0;endArrow=classic;" parent="1" source="9Y4i-fZ_1Q8IJUVzu4Gh-3" target="9Y4i-fZ_1Q8IJUVzu4Gh-2" edge="1">
          <mxGeometry relative="1" as="geometry" />
        </mxCell>
        <mxCell id="9Y4i-fZ_1Q8IJUVzu4Gh-3" value="&lt;font style=&quot;font-size: 19px;&quot;&gt;Draw Thread&lt;/font&gt;" style="rounded=0;whiteSpace=wrap;html=1;fontFamily=Helvetica;fontSize=11;fontColor=default;strokeWidth=3;fillColor=none;" parent="1" vertex="1">
          <mxGeometry x="140" y="300" width="156" height="40" as="geometry" />
        </mxCell>
        <mxCell id="9Y4i-fZ_1Q8IJUVzu4Gh-9" style="edgeStyle=orthogonalEdgeStyle;shape=connector;rounded=0;orthogonalLoop=1;jettySize=auto;html=1;exitX=0;exitY=0.5;exitDx=0;exitDy=0;entryX=1;entryY=0.5;entryDx=0;entryDy=0;labelBackgroundColor=default;strokeColor=default;strokeWidth=3;fontFamily=Helvetica;fontSize=11;fontColor=default;startArrow=none;startFill=0;endArrow=classic;" parent="1" source="9Y4i-fZ_1Q8IJUVzu4Gh-4" target="9Y4i-fZ_1Q8IJUVzu4Gh-2" edge="1">
          <mxGeometry relative="1" as="geometry" />
        </mxCell>
        <mxCell id="9Y4i-fZ_1Q8IJUVzu4Gh-4" value="&lt;font style=&quot;font-size: 19px;&quot;&gt;Update Thread&lt;/font&gt;" style="rounded=0;whiteSpace=wrap;html=1;fontFamily=Helvetica;fontSize=11;fontColor=default;strokeWidth=3;fillColor=none;" parent="1" vertex="1">
          <mxGeometry x="530" y="300" width="156" height="40" as="geometry" />
        </mxCell>
      </root>
    </mxGraphModel>
  </diagram>
  <diagram id="mAO8r-q1T2_2OC_Accj4" name="배경도">
    <mxGraphModel dx="199" dy="604" grid="1" gridSize="10" guides="1" tooltips="1" connect="1" arrows="1" fold="1" page="1" pageScale="1" pageWidth="827" pageHeight="1169" math="0" shadow="0">
      <root>
        <mxCell id="0" />
        <mxCell id="1" parent="0" />
        <mxCell id="KKbBICFgrSG2I_orELYT-26" style="edgeStyle=orthogonalEdgeStyle;shape=connector;rounded=0;orthogonalLoop=1;jettySize=auto;html=1;exitX=0.5;exitY=1;exitDx=0;exitDy=0;labelBackgroundColor=default;strokeColor=default;strokeWidth=3;fontFamily=Helvetica;fontSize=11;fontColor=default;startArrow=none;startFill=0;endArrow=classic;" parent="1" source="KKbBICFgrSG2I_orELYT-24" target="KKbBICFgrSG2I_orELYT-25" edge="1">
          <mxGeometry relative="1" as="geometry" />
        </mxCell>
        <mxCell id="KKbBICFgrSG2I_orELYT-27" value="&lt;span style=&quot;border-color: var(--border-color);&quot;&gt;&lt;font style=&quot;border-color: var(--border-color); font-size: 13px;&quot;&gt;업데이트된&amp;nbsp;&lt;/font&gt;&lt;/span&gt;&lt;span style=&quot;border-color: var(--border-color);&quot;&gt;&lt;font style=&quot;border-color: var(--border-color); font-size: 13px;&quot;&gt;FaT 시뮬레이터 실행파일&amp;nbsp;&lt;br style=&quot;border-color: var(--border-color);&quot;&gt;&amp;amp;&lt;br style=&quot;border-color: var(--border-color);&quot;&gt;업데이트 정보 제공&lt;/font&gt;&lt;/span&gt;" style="edgeLabel;html=1;align=center;verticalAlign=middle;resizable=0;points=[];fontSize=11;fontFamily=Helvetica;fontColor=default;" parent="KKbBICFgrSG2I_orELYT-26" vertex="1" connectable="0">
          <mxGeometry x="-0.1053" y="-1" relative="1" as="geometry">
            <mxPoint x="1" y="6" as="offset" />
          </mxGeometry>
        </mxCell>
        <mxCell id="KKbBICFgrSG2I_orELYT-29" style="shape=connector;rounded=0;orthogonalLoop=1;jettySize=auto;html=1;exitX=0;exitY=0.5;exitDx=0;exitDy=0;labelBackgroundColor=default;strokeColor=default;strokeWidth=3;fontFamily=Helvetica;fontSize=11;fontColor=default;startArrow=none;startFill=0;endArrow=classic;" parent="1" source="KKbBICFgrSG2I_orELYT-24" edge="1">
          <mxGeometry relative="1" as="geometry">
            <mxPoint x="970" y="340" as="targetPoint" />
          </mxGeometry>
        </mxCell>
        <mxCell id="KKbBICFgrSG2I_orELYT-30" value="&lt;span style=&quot;border-color: var(--border-color);&quot;&gt;&lt;font style=&quot;border-color: var(--border-color); font-size: 13px;&quot;&gt;축적된 피드백&lt;/font&gt;&lt;/span&gt;" style="edgeLabel;html=1;align=center;verticalAlign=middle;resizable=0;points=[];fontSize=11;fontFamily=Helvetica;fontColor=default;" parent="KKbBICFgrSG2I_orELYT-29" vertex="1" connectable="0">
          <mxGeometry x="-0.0762" y="1" relative="1" as="geometry">
            <mxPoint x="-104" y="37" as="offset" />
          </mxGeometry>
        </mxCell>
        <mxCell id="KKbBICFgrSG2I_orELYT-24" value="&lt;font style=&quot;font-size: 20px;&quot;&gt;&lt;b&gt;앱스토어&lt;/b&gt;&lt;/font&gt;" style="rounded=0;whiteSpace=wrap;html=1;fontFamily=Helvetica;fontSize=11;strokeWidth=3;fillColor=#dae8fc;strokeColor=#6c8ebf;" parent="1" vertex="1">
          <mxGeometry x="1200" y="110" width="120" height="60" as="geometry" />
        </mxCell>
        <mxCell id="KKbBICFgrSG2I_orELYT-25" value="&lt;font size=&quot;1&quot; style=&quot;&quot;&gt;&lt;b style=&quot;font-size: 20px;&quot;&gt;FaT 시뮬레이터&lt;/b&gt;&lt;/font&gt;" style="ellipse;whiteSpace=wrap;html=1;aspect=fixed;fontFamily=Helvetica;fontSize=11;strokeWidth=3;fillColor=#d5e8d4;strokeColor=#82b366;" parent="1" vertex="1">
          <mxGeometry x="1195" y="360" width="130" height="130" as="geometry" />
        </mxCell>
        <mxCell id="KKbBICFgrSG2I_orELYT-28" value="&lt;font size=&quot;1&quot; style=&quot;&quot;&gt;&lt;b style=&quot;font-size: 20px;&quot;&gt;관리자&lt;/b&gt;&lt;/font&gt;" style="sketch=0;outlineConnect=0;fontColor=#232F3E;gradientColor=none;fillColor=#232F3D;strokeColor=none;dashed=0;verticalLabelPosition=bottom;verticalAlign=top;align=center;html=1;fontSize=12;fontStyle=0;aspect=fixed;pointerEvents=1;shape=mxgraph.aws4.user;fontFamily=Helvetica;" parent="1" vertex="1">
          <mxGeometry x="920" y="350" width="100" height="100" as="geometry" />
        </mxCell>
        <mxCell id="KKbBICFgrSG2I_orELYT-31" value="" style="endArrow=classic;html=1;rounded=0;labelBackgroundColor=default;strokeColor=default;strokeWidth=3;fontFamily=Helvetica;fontSize=11;fontColor=default;shape=connector;entryX=0;entryY=1;entryDx=0;entryDy=0;" parent="1" target="KKbBICFgrSG2I_orELYT-24" edge="1">
          <mxGeometry width="50" height="50" relative="1" as="geometry">
            <mxPoint x="1010" y="340" as="sourcePoint" />
            <mxPoint x="810" y="380" as="targetPoint" />
          </mxGeometry>
        </mxCell>
        <mxCell id="KKbBICFgrSG2I_orELYT-32" value="&lt;span style=&quot;border-color: var(--border-color); font-size: 13px;&quot;&gt;FaT 시뮬레이터&lt;br style=&quot;border-color: var(--border-color);&quot;&gt;버전+1 실행파일&lt;/span&gt;" style="edgeLabel;html=1;align=center;verticalAlign=middle;resizable=0;points=[];fontSize=11;fontFamily=Helvetica;fontColor=default;" parent="KKbBICFgrSG2I_orELYT-31" vertex="1" connectable="0">
          <mxGeometry x="-0.3328" relative="1" as="geometry">
            <mxPoint x="36" y="27" as="offset" />
          </mxGeometry>
        </mxCell>
        <mxCell id="KKbBICFgrSG2I_orELYT-36" style="edgeStyle=none;shape=connector;rounded=0;orthogonalLoop=1;jettySize=auto;html=1;entryX=1;entryY=0.5;entryDx=0;entryDy=0;labelBackgroundColor=default;strokeColor=default;strokeWidth=3;fontFamily=Helvetica;fontSize=11;fontColor=default;startArrow=none;startFill=0;endArrow=classic;" parent="1" source="KKbBICFgrSG2I_orELYT-33" target="KKbBICFgrSG2I_orELYT-24" edge="1">
          <mxGeometry relative="1" as="geometry" />
        </mxCell>
        <mxCell id="KKbBICFgrSG2I_orELYT-38" value="&lt;span style=&quot;border-color: var(--border-color); font-size: 13px;&quot;&gt;플레이 피드백&lt;/span&gt;" style="edgeLabel;html=1;align=center;verticalAlign=middle;resizable=0;points=[];fontSize=11;fontFamily=Helvetica;fontColor=default;" parent="KKbBICFgrSG2I_orELYT-36" vertex="1" connectable="0">
          <mxGeometry x="0.0001" y="2" relative="1" as="geometry">
            <mxPoint x="48" as="offset" />
          </mxGeometry>
        </mxCell>
        <mxCell id="KKbBICFgrSG2I_orELYT-33" value="&lt;font size=&quot;1&quot; style=&quot;&quot;&gt;&lt;b style=&quot;font-size: 20px;&quot;&gt;사용자&lt;/b&gt;&lt;/font&gt;" style="sketch=0;outlineConnect=0;fontColor=#232F3E;gradientColor=none;fillColor=#232F3D;strokeColor=none;dashed=0;verticalLabelPosition=bottom;verticalAlign=top;align=center;html=1;fontSize=12;fontStyle=0;aspect=fixed;pointerEvents=1;shape=mxgraph.aws4.user;fontFamily=Helvetica;" parent="1" vertex="1">
          <mxGeometry x="1500" y="350" width="100" height="100" as="geometry" />
        </mxCell>
        <mxCell id="KKbBICFgrSG2I_orELYT-41" value="" style="endArrow=classic;html=1;rounded=0;labelBackgroundColor=default;strokeColor=default;strokeWidth=3;fontFamily=Helvetica;fontSize=11;fontColor=default;shape=connector;entryX=1.005;entryY=0.465;entryDx=0;entryDy=0;entryPerimeter=0;" parent="1" target="KKbBICFgrSG2I_orELYT-25" edge="1">
          <mxGeometry width="50" height="50" relative="1" as="geometry">
            <mxPoint x="1490" y="420" as="sourcePoint" />
            <mxPoint x="1325.58" y="410.30000000000007" as="targetPoint" />
          </mxGeometry>
        </mxCell>
        <mxCell id="KKbBICFgrSG2I_orELYT-42" value="&lt;span style=&quot;border-color: var(--border-color); font-size: 13px;&quot;&gt;모바일 디바이스 사양&lt;br&gt;(버전 및 화면 크기)&lt;br style=&quot;border-color: var(--border-color);&quot;&gt;제공&lt;/span&gt;" style="edgeLabel;html=1;align=center;verticalAlign=middle;resizable=0;points=[];fontSize=11;fontFamily=Helvetica;fontColor=default;" parent="KKbBICFgrSG2I_orELYT-41" vertex="1" connectable="0">
          <mxGeometry x="0.1438" y="-1" relative="1" as="geometry">
            <mxPoint x="16" y="-26" as="offset" />
          </mxGeometry>
        </mxCell>
        <mxCell id="KKbBICFgrSG2I_orELYT-43" value="" style="endArrow=classic;html=1;rounded=0;labelBackgroundColor=default;strokeColor=default;strokeWidth=3;fontFamily=Helvetica;fontSize=11;fontColor=default;shape=connector;exitX=0.991;exitY=0.603;exitDx=0;exitDy=0;exitPerimeter=0;" parent="1" source="KKbBICFgrSG2I_orELYT-25" edge="1">
          <mxGeometry width="50" height="50" relative="1" as="geometry">
            <mxPoint x="1420" y="400" as="sourcePoint" />
            <mxPoint x="1490" y="440" as="targetPoint" />
          </mxGeometry>
        </mxCell>
        <mxCell id="KKbBICFgrSG2I_orELYT-44" value="&lt;span style=&quot;border-color: var(--border-color);&quot;&gt;&lt;font style=&quot;border-color: var(--border-color); font-size: 13px;&quot;&gt;서비스 제공&lt;/font&gt;&lt;/span&gt;" style="edgeLabel;html=1;align=center;verticalAlign=middle;resizable=0;points=[];fontSize=11;fontFamily=Helvetica;fontColor=default;" parent="KKbBICFgrSG2I_orELYT-43" vertex="1" connectable="0">
          <mxGeometry x="-0.1731" y="1" relative="1" as="geometry">
            <mxPoint x="18" y="12" as="offset" />
          </mxGeometry>
        </mxCell>
      </root>
    </mxGraphModel>
  </diagram>
  <diagram id="oFAddJPjaf748uNQn2n-" name="sequence diagram">
    <mxGraphModel dx="1026" dy="604" grid="1" gridSize="10" guides="1" tooltips="1" connect="1" arrows="1" fold="1" page="1" pageScale="1" pageWidth="827" pageHeight="1169" math="0" shadow="0">
      <root>
        <mxCell id="0" />
        <mxCell id="1" parent="0" />
        <mxCell id="VAWGRrYCah70H5EeMWfv-1" value="user" style="shape=umlActor;verticalLabelPosition=bottom;verticalAlign=top;html=1;outlineConnect=0;fontFamily=Helvetica;fontSize=11;fontColor=default;strokeWidth=3;" parent="1" vertex="1">
          <mxGeometry x="90" y="250" width="30" height="60" as="geometry" />
        </mxCell>
        <mxCell id="VAWGRrYCah70H5EeMWfv-13" style="edgeStyle=none;shape=connector;rounded=0;orthogonalLoop=1;jettySize=auto;html=1;exitX=1;exitY=0.5;exitDx=0;exitDy=0;labelBackgroundColor=default;strokeColor=default;strokeWidth=3;fontFamily=Helvetica;fontSize=11;fontColor=default;startArrow=none;startFill=0;endArrow=classic;dashed=1;dashPattern=1 1;" parent="1" source="VAWGRrYCah70H5EeMWfv-2" target="VAWGRrYCah70H5EeMWfv-11" edge="1">
          <mxGeometry relative="1" as="geometry" />
        </mxCell>
        <mxCell id="VAWGRrYCah70H5EeMWfv-23" value="&amp;lt;&amp;lt;include&amp;gt;&amp;gt;" style="edgeLabel;html=1;align=center;verticalAlign=middle;resizable=0;points=[];fontSize=11;fontFamily=Helvetica;fontColor=default;" parent="VAWGRrYCah70H5EeMWfv-13" vertex="1" connectable="0">
          <mxGeometry x="-0.2933" y="-1" relative="1" as="geometry">
            <mxPoint x="15" y="-1" as="offset" />
          </mxGeometry>
        </mxCell>
        <mxCell id="VAWGRrYCah70H5EeMWfv-17" style="edgeStyle=none;shape=connector;rounded=0;orthogonalLoop=1;jettySize=auto;html=1;exitX=1;exitY=0;exitDx=0;exitDy=0;entryX=0;entryY=1;entryDx=0;entryDy=0;labelBackgroundColor=default;strokeColor=default;strokeWidth=3;fontFamily=Helvetica;fontSize=11;fontColor=default;startArrow=none;startFill=0;endArrow=classic;dashed=1;dashPattern=1 1;" parent="1" source="VAWGRrYCah70H5EeMWfv-2" target="VAWGRrYCah70H5EeMWfv-16" edge="1">
          <mxGeometry relative="1" as="geometry" />
        </mxCell>
        <mxCell id="VAWGRrYCah70H5EeMWfv-2" value="게임 실행" style="ellipse;whiteSpace=wrap;html=1;fontFamily=Helvetica;fontSize=11;fontColor=default;fillColor=none;strokeWidth=3;" parent="1" vertex="1">
          <mxGeometry x="310" y="310" width="90" height="60" as="geometry" />
        </mxCell>
        <mxCell id="VAWGRrYCah70H5EeMWfv-5" style="edgeStyle=none;shape=connector;rounded=0;orthogonalLoop=1;jettySize=auto;html=1;exitX=1;exitY=1;exitDx=0;exitDy=0;entryX=0;entryY=0;entryDx=0;entryDy=0;labelBackgroundColor=default;strokeColor=default;strokeWidth=3;fontFamily=Helvetica;fontSize=11;fontColor=default;startArrow=none;startFill=0;endArrow=classic;dashed=1;dashPattern=1 1;" parent="1" source="VAWGRrYCah70H5EeMWfv-4" target="VAWGRrYCah70H5EeMWfv-2" edge="1">
          <mxGeometry relative="1" as="geometry" />
        </mxCell>
        <mxCell id="VAWGRrYCah70H5EeMWfv-19" value="&amp;lt;&amp;lt;include&amp;gt;&amp;gt;" style="edgeLabel;html=1;align=center;verticalAlign=middle;resizable=0;points=[];fontSize=11;fontFamily=Helvetica;fontColor=default;" parent="VAWGRrYCah70H5EeMWfv-5" vertex="1" connectable="0">
          <mxGeometry x="-0.2912" y="1" relative="1" as="geometry">
            <mxPoint as="offset" />
          </mxGeometry>
        </mxCell>
        <mxCell id="VAWGRrYCah70H5EeMWfv-4" value="게임 연령층,&lt;br&gt;스테이지,&lt;br&gt;난이도 설정" style="ellipse;whiteSpace=wrap;html=1;fontFamily=Helvetica;fontSize=11;fontColor=default;fillColor=none;strokeWidth=3;" parent="1" vertex="1">
          <mxGeometry x="190" y="190" width="90" height="60" as="geometry" />
        </mxCell>
        <mxCell id="VAWGRrYCah70H5EeMWfv-8" style="edgeStyle=none;shape=connector;rounded=0;orthogonalLoop=1;jettySize=auto;html=1;exitX=0.5;exitY=0;exitDx=0;exitDy=0;entryX=0.096;entryY=0.849;entryDx=0;entryDy=0;entryPerimeter=0;labelBackgroundColor=default;strokeColor=default;strokeWidth=3;fontFamily=Helvetica;fontSize=11;fontColor=default;startArrow=classic;startFill=1;endArrow=none;dashed=1;dashPattern=1 1;endFill=0;" parent="1" source="VAWGRrYCah70H5EeMWfv-6" target="VAWGRrYCah70H5EeMWfv-2" edge="1">
          <mxGeometry relative="1" as="geometry" />
        </mxCell>
        <mxCell id="VAWGRrYCah70H5EeMWfv-22" value="&amp;lt;&amp;lt;include&amp;gt;&amp;gt;" style="edgeLabel;html=1;align=center;verticalAlign=middle;resizable=0;points=[];fontSize=11;fontFamily=Helvetica;fontColor=default;" parent="VAWGRrYCah70H5EeMWfv-8" vertex="1" connectable="0">
          <mxGeometry x="-0.1451" y="-3" relative="1" as="geometry">
            <mxPoint y="-2" as="offset" />
          </mxGeometry>
        </mxCell>
        <mxCell id="VAWGRrYCah70H5EeMWfv-6" value="CPR" style="ellipse;whiteSpace=wrap;html=1;fontFamily=Helvetica;fontSize=11;fontColor=default;fillColor=none;strokeWidth=3;" parent="1" vertex="1">
          <mxGeometry x="220" y="430" width="90" height="60" as="geometry" />
        </mxCell>
        <mxCell id="VAWGRrYCah70H5EeMWfv-9" value="&amp;lt;&amp;lt;include&amp;gt;&amp;gt;" style="edgeStyle=none;shape=connector;rounded=0;orthogonalLoop=1;jettySize=auto;html=1;exitX=0.5;exitY=0;exitDx=0;exitDy=0;labelBackgroundColor=default;strokeColor=default;strokeWidth=3;fontFamily=Helvetica;fontSize=11;fontColor=default;startArrow=classic;startFill=1;endArrow=none;dashed=1;dashPattern=1 1;endFill=0;" parent="1" source="VAWGRrYCah70H5EeMWfv-7" target="VAWGRrYCah70H5EeMWfv-2" edge="1">
          <mxGeometry x="-0.1779" y="-10" relative="1" as="geometry">
            <mxPoint as="offset" />
          </mxGeometry>
        </mxCell>
        <mxCell id="VAWGRrYCah70H5EeMWfv-7" value="Ventilator" style="ellipse;whiteSpace=wrap;html=1;fontFamily=Helvetica;fontSize=11;fontColor=default;fillColor=none;strokeWidth=3;" parent="1" vertex="1">
          <mxGeometry x="380" y="430" width="90" height="60" as="geometry" />
        </mxCell>
        <mxCell id="VAWGRrYCah70H5EeMWfv-11" value="결과확인" style="ellipse;whiteSpace=wrap;html=1;fontFamily=Helvetica;fontSize=11;fontColor=default;fillColor=none;strokeWidth=3;" parent="1" vertex="1">
          <mxGeometry x="520" y="310" width="90" height="60" as="geometry" />
        </mxCell>
        <mxCell id="VAWGRrYCah70H5EeMWfv-16" value="게임 피드백" style="ellipse;whiteSpace=wrap;html=1;fontFamily=Helvetica;fontSize=11;fontColor=default;fillColor=none;strokeWidth=3;" parent="1" vertex="1">
          <mxGeometry x="520" y="190" width="90" height="60" as="geometry" />
        </mxCell>
        <mxCell id="VAWGRrYCah70H5EeMWfv-18" value="Manager" style="shape=umlActor;verticalLabelPosition=bottom;verticalAlign=top;html=1;outlineConnect=0;fontFamily=Helvetica;fontSize=11;fontColor=default;strokeWidth=3;" parent="1" vertex="1">
          <mxGeometry x="690" y="250" width="30" height="60" as="geometry" />
        </mxCell>
        <mxCell id="VAWGRrYCah70H5EeMWfv-25" value="" style="rounded=0;whiteSpace=wrap;html=1;fontFamily=Helvetica;fontSize=11;fontColor=default;fillColor=none;strokeWidth=3;" parent="1" vertex="1">
          <mxGeometry x="170" y="160" width="470" height="350" as="geometry" />
        </mxCell>
      </root>
    </mxGraphModel>
  </diagram>
</mxfile>
